<?xml version="1.0" encoding="UTF-8"?>
<svg id="Camada_1" xmlns="http://www.w3.org/2000/svg" version="1.1" viewBox="0 0 595.8 110.1">
  <!-- Generator: Adobe Illustrator 29.1.0, SVG Export Plug-In . SVG Version: 2.1.0 Build 142)  -->
  <g>
    <path d="M121.2,103.6h-33.7V8.5h34c9.6,0,17.8,1.9,24.7,5.7,6.9,3.8,12.2,9.2,15.9,16.3,3.7,7.1,5.6,15.6,5.6,25.4s-1.9,18.4-5.6,25.5c-3.7,7.1-9.1,12.6-16,16.4-6.9,3.8-15.3,5.7-24.9,5.7ZM107.6,86.4h12.8c5.9,0,10.9-1.1,15-3.2,4.1-2.1,7.1-5.4,9.2-9.9,2.1-4.5,3.1-10.3,3.1-17.3s-1-12.8-3.1-17.2c-2.1-4.5-5.1-7.7-9.2-9.8-4.1-2.1-9.1-3.2-15-3.2h-12.8v60.6Z"/>
    <path d="M202.7,8.5v95.1h-20.1V8.5h20.1Z"/>
    <path d="M282.3,39.3c-.6-2.3-1.6-4.3-2.7-6-1.2-1.7-2.6-3.2-4.3-4.5-1.7-1.2-3.6-2.2-5.8-2.8-2.2-.6-4.5-1-7.1-1-4.9,0-9.1,1.2-12.8,3.6s-6.5,5.9-8.6,10.5c-2,4.6-3.1,10.2-3.1,16.8s1,12.3,3,16.9c2,4.6,4.9,8.2,8.5,10.6,3.7,2.4,8,3.6,13,3.6s8.4-.8,11.7-2.4c3.2-1.6,5.7-3.9,7.4-6.9,1.7-3,2.6-6.5,2.6-10.5l4.1.6h-24.5v-15.1h39.8v12c0,8.4-1.8,15.5-5.3,21.5-3.5,6-8.4,10.6-14.6,13.8-6.2,3.2-13.3,4.9-21.3,4.9s-16.7-2-23.5-5.9c-6.7-3.9-12-9.6-15.8-16.9-3.8-7.3-5.6-15.9-5.6-26s1.1-14.6,3.4-20.6c2.2-6.1,5.4-11.2,9.4-15.4,4.1-4.2,8.8-7.4,14.2-9.6,5.4-2.2,11.2-3.3,17.5-3.3s10.4.8,15,2.3c4.6,1.6,8.8,3.8,12.4,6.6,3.6,2.8,6.6,6.2,8.8,10.1,2.3,3.9,3.8,8.2,4.4,12.9h-20.4Z"/>
    <path d="M338.8,8.5v95.1h-20.1V8.5h20.1Z"/>
    <path d="M351.8,25.1V8.5h78.1v16.6h-29.1v78.5h-19.9V25.1h-29.1Z"/>
    <path d="M447.5,103.6h-21.5l32.8-95.1h25.9l32.8,95.1h-21.5l-23.8-73.4h-.7l-23.9,73.4ZM446.1,66.2h50.9v15.7h-50.9v-15.7Z"/>
    <path d="M528.9,103.6V8.5h20.1v78.5h40.8v16.6h-60.9Z"/>
  </g>
  <rect x="60.9" y="8.5" width="13" height="95.1"/>
  <rect x="35.8" y="8.5" width="13" height="95.1"/>
  <rect x="10.7" y="8.5" width="13" height="95.1"/>
</svg>