<svg xmlns="http://www.w3.org/2000/svg" xml:space="preserve" width="236.5mm" height="75.2121mm" version="1.1" style="shape-rendering:geometricPrecision; text-rendering:geometricPrecision; image-rendering:optimizeQuality; fill-rule:evenodd; clip-rule:evenodd"
viewBox="0 0 24329.01 7737.16"
 xmlns:xlink="http://www.w3.org/1999/xlink"
 xmlns:xodm="http://www.corel.com/coreldraw/odm/2003">
 <defs>
  <style type="text/css">
   <![CDATA[
    .fil2 {fill:black}
    .fil3 {fill:#0033AA}
    .fil0 {fill:red}
    .fil5 {fill:black;fill-rule:nonzero}
    .fil4 {fill:url(#id0)}
    .fil1 {fill:url(#id1)}
   ]]>
  </style>
  <linearGradient id="id0" gradientUnits="userSpaceOnUse" x1="22967.71" y1="-3251" x2="22967.71" y2="-2163.02">
   <stop offset="0" style="stop-opacity:1; stop-color:red"/>
   <stop offset="1" style="stop-opacity:1; stop-color:#E00000"/>
  </linearGradient>
  <linearGradient id="id1" gradientUnits="userSpaceOnUse" xlink:href="#id0" x1="705.17" y1="-4008.4" x2="705.17" y2="-1269.06">
  </linearGradient>
 </defs>
 <g id="Слой_x0020_1">
  <metadata id="CorelCorpID_0Corel-Layer"/>
  <path class="fil0" d="M1165.5 264.27c-236.88,0 -431.11,194.23 -431.11,431.1 0,236.88 194.24,431.14 431.11,431.14 241.68,0 431.24,-194.23 431.24,-431.14 4.68,-236.87 -189.56,-431.1 -431.24,-431.1zm-146.79 232.1c-85.28,0 -156.41,71.08 -156.41,156.36 0,85.28 71.13,151.6 156.41,151.6 85.28,0 156.27,-70.99 156.27,-151.6 0,-89.95 -70.99,-156.36 -156.27,-156.36z"/>
  <path class="fil1" d="M1923.57 2642.75c251.16,0 454.88,203.72 454.88,454.78 0,251.16 -203.72,454.88 -454.88,454.88 -251.04,0 -454.78,-203.72 -454.78,-454.88 0,-251.07 203.75,-454.78 454.78,-454.78zm-1009.14 2999.11c412.14,-559.05 649.15,-919.13 824.39,-1070.73 677.59,-587.61 -251.04,1511.33 -1738.82,2691.12 668.08,-184.75 1388.22,-729.58 2217.37,-1606.22 -118.44,507.03 -222.67,578.13 -511.71,999.74 1198.7,-502.2 2084.79,-3027.59 729.73,-5102.85 653.82,3349.85 -1089.84,1217.75 -1520.95,4088.94l0 0 0 0 0 0 0 0 0 0 0 0z"/>
  <path class="fil2" d="M2307.36 666.92c350.6,0 630.24,284.32 630.24,630.25 0,350.49 -284.32,634.82 -630.24,634.82 -350.53,0 -634.83,-284.33 -634.83,-634.82 4.68,-345.94 289,-630.25 634.83,-630.25zm-274.74 317.48c127.95,0 227.39,104.24 227.39,227.49 0,123.11 -99.44,227.39 -227.39,227.39 -127.92,0 -227.5,-104.28 -227.5,-227.39 0,-123.25 104.28,-227.49 227.5,-227.49z"/>
  <path class="fil2" d="M5832.48 2595.31c0,270.13 -89.99,507 -270.04,710.72 -203.75,232.2 -483.36,350.64 -834,350.64 -350.61,0 -625.33,-113.72 -833.86,-350.64 -180.03,-203.72 -270.03,-440.59 -270.03,-710.72 0,-123.15 23.67,-251.07 71.02,-378.99 47.41,-127.92 113.72,-241.69 194.33,-331.64 203.72,-232.2 483.23,-350.64 833.86,-350.64 350.64,0 625.44,113.66 833.86,350.64 184.85,203.72 274.84,440.59 274.84,710.62l0 0zm-535.38 0c0,-142.12 -42.64,-260.55 -132.73,-364.79 -113.62,-132.63 -260.54,-194.24 -431.1,-194.24 -118.44,0 -227.39,33.16 -322.15,99.48 -94.76,66.41 -165.89,156.36 -203.72,265.32 -23.77,66.32 -37.97,127.92 -37.97,194.24 0,137.39 42.64,255.87 132.72,360.11 113.63,132.73 255.84,199.05 431.11,199.05 175.26,0 317.48,-66.41 431.1,-194.23 85.28,-109.05 132.72,-227.53 132.72,-364.93l0 0 0 0 0.01 0zm2629.6 990.26l-516.49 0 -952.3 -1217.66 0 1217.66 -516.53 0 0 -1989.91 516.53 0 952.3 1217.66 0 -1217.66 516.49 0 0 1989.91zm1336.09 0l-1137.15 0 0 -1989.91 516.49 0 0 1558.78 620.66 0 0 431.13 0 0 0 0 0 0 0 0 0 0zm596.99 0l-516.49 0 0 -1989.91 516.49 0 0 1989.91zm2184.21 0l-516.49 0 -952.3 -1217.66 0 1217.66 -516.38 0 0 -1989.91 516.38 0 952.3 1217.66 0 -1217.66 516.49 0 0 1989.91zm1331.43 0l-1132.49 0 0 -1989.91 1132.49 0 0 431.13 -615.99 0 0 345.83 582.83 0 0 431.21 -582.83 0 0 360.12 615.99 0 0 421.62 0 0 0 0 0 0 0 0zm2359.47 1729.34c0,336.44 -146.92,554.35 -440.59,658.59 -104.28,37.97 -213.23,52.16 -331.67,52.16 -246.46,0 -478.56,-75.79 -691.76,-222.71l222.72 -416.92c156.27,142.08 307.86,213.2 454.74,213.2 66.32,0 123.25,-14.2 170.59,-47.35 52.12,-37.93 80.58,-85.28 80.58,-151.59 0,-56.94 -28.45,-109.05 -90.05,-146.89 -42.64,-28.49 -118.44,-61.64 -227.4,-90.08 -127.95,-37.84 -208.52,-66.32 -241.68,-80.48 -52.12,-23.77 -99.48,-47.44 -132.63,-80.6 -109.05,-85.28 -161.18,-222.72 -161.18,-397.95 0,-184.86 56.94,-336.45 165.89,-459.59 127.92,-142.22 298.48,-213.2 511.68,-213.2 213.23,0 421.75,52.11 630.14,161.08l-208.39 402.75c-113.77,-90.08 -227.52,-132.72 -341.15,-132.72 -56.93,0 -104.25,14.19 -146.92,42.64 -52.11,33.16 -75.8,75.8 -75.8,127.92 0,52.12 33.16,99.47 99.48,137.44 28.47,18.97 113.75,47.31 260.54,89.95 184.85,52.12 312.77,127.92 393.28,227.49 66.41,85.28 99.57,194.24 99.57,326.86l0 0 0 0 0 0 0 0zm1895.22 658.6l-516.49 0 0 -824.39 -748.58 0 0 824.39 -516.41 0 0 -1989.99 516.41 0 0 767.66 748.58 0 0 -772.36 516.49 0 0 1994.69 0 0 0 0zm2307.36 -990.24c0,270.13 -89.98,507 -270.03,710.72 -203.72,232.2 -483.23,350.64 -833.86,350.64 -350.64,0 -625.44,-118.44 -829.19,-350.64 -180.03,-203.72 -270.13,-440.59 -270.13,-710.72 0,-123.15 23.77,-251.06 71.13,-378.98 47.44,-127.92 113.72,-241.69 194.23,-331.68 203.72,-232.16 483.33,-350.6 833.97,-350.6 350.53,0 630.15,113.62 833.86,350.6 180.08,198.94 270.03,440.63 270.03,710.65l0 0 0 0zm-535.38 0c0,-142.11 -42.64,-260.54 -132.59,-364.82 -113.77,-132.6 -260.65,-194.24 -431.25,-194.24 -118.44,0 -227.39,33.16 -322.15,99.48 -94.76,66.31 -165.85,156.41 -208.53,265.36 -23.64,66.31 -33.16,127.92 -33.16,194.23 0,132.72 42.64,255.84 132.73,360.12 108.95,132.69 255.87,199 431.1,199 175.36,0 317.47,-66.41 431.24,-194.33 89.95,-108.95 132.59,-227.39 132.59,-364.79l0 0 0 0 0 0 0.01 0zm2160.57 -345.82c0,180.03 -42.64,326.96 -127.92,445.39 -108.95,151.6 -293.8,227.4 -544.87,227.4l-322.25 0 0 658.59 -516.41 0 0 -1990.02 824.38 0c236.87,0 412.24,66.32 530.67,203.76 104.28,123.21 156.41,270.03 156.41,454.88l0 0 0 0 0 0 0 0 0 0.01zm-540.16 4.67c0,-75.8 -23.68,-137.41 -66.32,-180.05 -42.64,-42.64 -118.44,-66.31 -222.67,-66.31l-170.59 0 0 502.23 170.59 0c113.62,0 189.52,-23.67 232.16,-75.8 37.87,-42.67 56.84,-104.28 56.84,-180.08l0 0 0 0z"/>
  <path class="fil3" d="M5150.2 5926.18c-170.6,66.31 -326.97,99.47 -469.07,99.47 -251.07,0 -473.75,-80.6 -672.79,-241.68 -251.07,-203.72 -379.09,-473.74 -379.09,-800.71 0,-331.67 127.92,-596.99 379.09,-805.41 199.04,-161.09 421.72,-241.69 677.56,-241.69 137.33,0 293.7,33.16 464.26,99.47l0 620.77c-47.31,-61.6 -99.44,-104.24 -146.89,-132.72 -94.75,-56.84 -194.23,-85.28 -298.51,-85.28 -132.59,0 -251.03,37.93 -350.6,123.25 -123.15,104.14 -189.43,241.54 -189.43,421.62 0,180.05 61.51,317.45 189.43,421.73 99.57,80.47 218,123.11 350.6,123.11 104.28,0 203.76,-28.35 298.51,-85.28 52.12,-28.35 99.58,-75.8 146.89,-132.63l0 615.99 0 0 0 0 0.04 0 0 0zm1999.46 47.31l-554.34 0 -127.92 -345.82 -715.43 0 -137.41 345.82 -544.87 0 762.77 -1989.98 563.84 0 753.36 1989.98 0 0zm-819.67 -743.87l-218 -634.82 -217.91 634.82 435.92 0zm3231.31 743.87l-516.52 0 -146.79 -1146.53 -478.56 1146.53 -203.71 0 -459.6 -1146.53 -170.55 1146.53 -516.53 0 336.48 -1989.98 511.67 0 402.66 1061.35 426.43 -1061.35 516.49 0 298.51 1989.98 0 0 0 0 0 0zm1241.3 0l-1132.33 0 0 -1989.98 1132.33 0 0 431.21 -615.85 0 0 345.83 582.69 0 0 431.21 -582.69 0 0 360.12 615.85 0 0 421.62 0 0 0 0 0 0 0 0zm1762.59 0l-639.63 0 -492.81 -762.74 0 762.74 -516.38 0 0 -1989.98 805.48 0c236.87,0 407.47,71.09 521.09,213.2 90.09,113.77 137.41,246.49 137.41,402.76 0,175.36 -52.12,317.47 -156.27,421.72 -66.41,66.31 -161.08,113.66 -279.51,142.11l620.63 810.19 0 0 0 0zm-724.91 -1350.25c0,-71.13 -28.44,-127.92 -80.57,-180.05 -47.35,-47.44 -127.95,-71.11 -232.2,-71.11l-94.76 0 0 497.52 94.76 0c109.05,0 184.85,-23.77 232.2,-66.41 52.12,-47.31 80.57,-108.95 80.57,-179.94l0 0zm2615.36 1350.25l-554.35 0 -127.92 -345.82 -710.75 0 -137.41 345.82 -544.87 0 762.87 -1989.98 563.84 0 748.58 1989.98 0 0 0 0 0 0 0 0zm-819.67 -743.87l-213.24 -634.82 -217.9 634.82 431.14 0z"/>
  <path class="fil2" d="M1430.86 212.14l199 161.08c810.22,-473.74 1653.57,61.64 1885.73,848.16 -42.64,-976.08 -1156.12,-1558.88 -2084.74,-1009.24l0 0 0 0 0 0z"/>
  <path class="fil2" d="M1023.38 1240.25l222.72 52.12c61.61,554.34 454.89,881.31 914.47,961.77l4.67 47.45c-559.02,-23.67 -1066.05,-383.76 -1141.86,-1061.35l0 0z"/>
  <path class="fil4" d="M22988.74 3841.41c184.85,0 360.08,42.64 511.67,123.24l0 1520.82 232.2 0 0 -1364.54c236.87,208.53 388.58,511.71 388.58,852.86 0,625.45 -507.01,1132.45 -1132.45,1132.45 -625.37,0 -1132.38,-507.01 -1132.38,-1132.45 -4.68,-625.37 502.23,-1132.38 1132.38,-1132.38l0 0zm-634.86 1402.5c37.87,0 66.32,14.16 94.76,37.83 23.67,23.78 37.87,56.94 37.87,94.76 0,37.97 -14.2,66.41 -37.87,94.8 -28.44,23.64 -56.93,37.94 -94.76,37.94 -37.93,0 -66.31,-14.3 -94.75,-37.94 -23.68,-28.37 -37.97,-56.83 -37.97,-94.8 0,-37.83 14.29,-66.31 37.97,-94.76 23.67,-23.67 56.83,-37.83 94.75,-37.83zm213.2 -677.6l227.43 0 0 94.76c52.12,-42.64 99.54,-75.8 142.18,-89.95 42.64,-19 85.18,-23.77 132.62,-23.77 90.09,0 170.56,33.16 232.2,94.76 52.12,52.11 80.47,132.72 80.47,241.68l0 606.48 -227.39 0 0 -402.76c0,-108.95 -4.67,-184.75 -14.16,-217.9 -9.52,-37.97 -28.49,-66.41 -52.16,-85.28 -23.77,-19 -56.93,-28.49 -90.05,-28.49 -47.35,0 -85.32,14.19 -118.44,47.34 -33.16,33.17 -56.84,75.91 -71.13,127.92 -4.67,28.49 -9.38,90.09 -9.38,184.86l0 369.49 -227.49 0 -4.71 -919.14 0 0z"/>
  <path class="fil5" d="M2542.66 7476.1l0 -892.29 274.72 0c44.43,0 84.23,5.02 119.44,14.85 35.24,9.83 65.04,24.69 89.44,44.98 24.4,20.28 43.16,45.58 55.86,76.35 12.94,30.54 19.2,66.73 19.2,108.34 0,20.5 -2.1,40.16 -6.25,58.97 -4.37,18.62 -11.07,36.19 -20.21,52.53 -9.18,16.52 -20.85,31.16 -34.81,44.54 -13.99,13.19 -30.87,24.26 -50.47,32.83 22.92,6.5 42.12,16.34 58.17,29.72 15.83,13.16 28.56,28.66 38.35,46.23 9.8,17.57 16.88,36.59 21.48,57.3 4.37,20.72 6.65,41.83 6.65,63.38 0,86.58 -23.75,152.05 -71.07,196.2 -47.51,44.14 -116.12,66.08 -206.13,66.08l-294.35 0 0 0 0 0zm12911.53 12.35c-45.26,0 -85.28,-7.12 -120.28,-20.92 -35.04,-13.82 -64.64,-33.88 -88.61,-60.02 -23.97,-26.17 -42.29,-58.16 -54.58,-96.02 -12.51,-37.63 -18.59,-80.72 -18.59,-128.85l0 -54.58c0,-53.98 5.86,-101.23 17.93,-141.83 12.12,-40.78 29.4,-74.87 51.92,-102.48 22.52,-27.4 50.25,-48.31 82.97,-62.11 32.94,-13.81 70.02,-20.93 111.53,-20.93 83.79,0 146.74,27.19 188.63,81.6 42.12,54.37 62.94,134.88 62.94,241.35l0 79.07 -343.72 0c1.27,26.57 4.8,48.95 10.63,66.95 5.85,17.97 13.96,32.44 24.19,43.49 10.24,10.88 22.53,18.84 36.91,23.86 14.35,4.81 30.84,7.3 49.17,7.3 30.44,0 57.76,-5.21 81.52,-15.69 23.75,-10.23 44.79,-24.87 63.16,-43.71l67.74 104.81c-8.53,11.93 -19.59,23.65 -33.55,35.14 -13.77,11.72 -30.04,22.16 -48.8,31.6 -18.76,9.39 -40.02,17.13 -63.55,22.99 -23.57,5.85 -49.42,9 -77.54,9l0 -0.01zm-18.98 -543.61c-30.01,0 -51.92,10.85 -65.65,32.39 -13.56,21.77 -21.7,56.51 -23.97,104.19l172.8 0 0 -15.9c-0.83,-39.54 -7.3,-69.66 -19.6,-90.16 -12.32,-20.29 -33.36,-30.52 -63.58,-30.52l0 0zm508.83 -131.77l4.8 65.65c19.16,-25.52 41.47,-44.76 67.1,-57.92 25.63,-13.41 54.41,-20.1 86.11,-20.1 25.63,0 49.38,4.41 70.86,13.2 21.69,8.79 40.23,23.21 55.67,43.27 15.4,20.1 27.51,46.24 36.04,78.46 8.57,32.21 12.73,71.94 12.73,118.79l0 421.68 -173.42 0 0 -422.29c0,-21.12 -1.7,-38.69 -4.8,-52.5 -3.32,-14.03 -8.14,-25.13 -14.39,-33.26 -6.24,-8.18 -14.17,-13.82 -23.53,-17.18 -9.4,-3.11 -20.46,-4.8 -32.97,-4.8 -16.23,0 -30.62,4.2 -42.73,12.76 -12.29,8.57 -22.49,20.5 -30.62,35.58l0 481.68 -173.45 0 0 -663.03 162.61 0 0 0zm908.02 0l4.77 61.28c18.36,-23.21 40.23,-41.44 65.68,-54.19 25.64,-12.94 54.81,-19.45 87.74,-19.45 30.44,0 57.95,7.33 82.13,21.55 24.19,14.24 43.38,37.01 57.74,68 17.93,-28.27 40.23,-50.21 66.92,-65.91 26.5,-15.69 58.16,-23.64 94.86,-23.64 26.9,0 51.26,4.63 72.96,13.59 21.87,9 40.45,23.43 55.85,43.54 15.66,20.06 27.52,46.2 36.08,78.41 8.54,32.21 12.91,71.76 12.91,118.18l0 421.67 -172.8 0 0 -422.29c0,-21.97 -1.67,-39.94 -4.59,-53.75 -3.11,-14.03 -7.71,-24.92 -13.74,-32.83 -6.25,-7.96 -13.56,-13.6 -22.09,-16.52 -8.57,-3.15 -18.36,-4.63 -29.21,-4.63 -17.11,0 -31.67,5.24 -43.35,15.9 -11.89,10.67 -21.48,25.09 -28.77,43.49 0.43,4.4 0.65,9.22 0.82,14.02 0.23,5.03 0.44,9.83 0.44,14.86l0 441.73 -172.81 0 0 -421.02c0,-21.97 -1.66,-40.16 -4.59,-54.19 -3.15,-14.02 -7.52,-25.31 -13.56,-33.47 -5.82,-8.14 -13.12,-13.77 -21.87,-16.7 -8.74,-3.15 -18.76,-4.63 -29.61,-4.63 -16.05,0 -29.61,4.19 -41.28,12.76 -11.68,8.57 -21.48,20.5 -29.58,35.57l0 481.68 -172.84 0 0 -663.02 161.79 0 0 0zm1032.06 675.38c-45.26,0 -85.29,-7.12 -120.28,-20.92 -35.04,-13.82 -64.64,-33.88 -88.6,-60.02 -23.97,-26.17 -42.3,-58.16 -54.63,-96.02 -12.51,-37.63 -18.54,-80.72 -18.54,-128.85l0 -54.58c0,-53.98 5.85,-101.23 17.92,-141.83 12.08,-40.78 29.4,-74.87 51.92,-102.48 22.49,-27.4 50.21,-48.31 82.97,-62.11 32.94,-13.81 70.02,-20.93 111.49,-20.93 83.8,0 146.78,27.19 188.68,81.6 42.08,54.37 62.94,134.88 62.94,241.35l0 79.07 -343.72 0c1.22,26.57 4.8,48.95 10.63,66.95 5.82,17.97 13.95,32.44 24.19,43.49 10.19,10.88 22.53,18.84 36.88,23.86 14.38,4.81 30.87,7.3 49.2,7.3 30.44,0 57.73,-5.21 81.52,-15.69 23.75,-10.23 44.8,-24.87 63.16,-43.71l67.75 104.81c-8.57,11.93 -19.6,23.65 -33.59,35.14 -13.74,11.72 -30.01,22.16 -48.77,31.6 -18.76,9.39 -40.02,17.13 -63.55,22.99 -23.57,5.85 -49.42,9 -77.54,9l0 -0.01zm-18.98 -543.61c-30.05,0 -51.92,10.85 -65.69,32.39 -13.52,21.77 -21.65,56.51 -23.97,104.19l172.84 0 0 -15.9c-0.86,-39.54 -7.3,-69.66 -19.63,-90.16 -12.29,-20.29 -33.34,-30.52 -63.56,-30.52l0.01 0zm551.56 -294.74l0 162.97 88.39 0 0 130.51 -88.39 0 0 329.01c0,13.99 0.83,25.31 2.71,34.31 1.88,8.96 4.77,16.09 9.19,21.11 4.16,5.25 9.58,8.79 16.02,10.45 6.69,1.88 14.6,2.75 24,2.75 8.53,0 16.23,-0.22 23.32,-1.05 7.3,-0.86 12.94,-1.88 17.53,-3.15l-1.27 134.7c-12.9,5.03 -27.12,9.01 -42.12,12.12 -15,2.93 -32.71,4.63 -53.14,4.63 -25.64,0 -48.77,-3.77 -69.62,-10.88 -20.83,-7.12 -38.55,-18.62 -53.37,-34.31 -15,-15.69 -26.24,-35.97 -34.19,-60.88 -7.92,-24.87 -11.86,-54.98 -11.86,-90.13l0 -348.68 -76.5 0 0 -130.51 76.5 0 0 -162.97 172.81 0 0 0zm672.45 0l0 162.97 88.4 0 0 130.51 -88.4 0 0 329.01c0,13.99 0.83,25.31 2.72,34.31 1.88,8.96 4.8,16.09 9.19,21.11 4.16,5.25 9.58,8.79 16.05,10.45 6.66,1.88 14.57,2.75 23.97,2.75 8.53,0 16.26,-0.22 23.35,-1.05 7.27,-0.86 12.91,-1.88 17.5,-3.15l-1.27 134.7c-12.9,5.03 -27.08,9.01 -42.08,12.12 -15,2.93 -32.74,4.63 -53.17,4.63 -25.64,0 -48.77,-3.77 -69.59,-10.88 -20.86,-7.12 -38.58,-18.62 -53.4,-34.31 -15,-15.69 -26.24,-35.97 -34.15,-60.88 -7.92,-24.87 -11.9,-54.98 -11.9,-90.13l0 -348.68 -76.5 0 0 -130.51 76.5 0 0 -162.97 172.8 0zm144.68 472.93c0,-51.88 6.26,-97.68 18.95,-137.85 12.51,-39.94 30.44,-73.6 53.79,-101 23.14,-27.4 51.09,-48.12 84.01,-62.15 32.72,-14.21 69.42,-21.33 110.05,-21.33 41.28,0 78.19,7.12 111.31,21.33 32.94,14.03 61.1,34.75 84.23,62.15 23.14,27.39 41.08,61.05 53.76,101 12.51,40.17 18.98,85.97 18.98,137.85l0 43.71c0,52.31 -6.25,98.33 -18.76,138.06 -12.29,39.94 -30.22,73.42 -53.36,100.82 -23.35,27.37 -51.26,48.08 -84.42,61.9 -32.93,13.81 -69.62,20.92 -110.47,20.92 -41.07,0 -78.16,-7.12 -111.1,-20.92 -32.93,-13.82 -61.1,-34.52 -84.23,-61.9 -23.35,-27.4 -41.28,-60.88 -53.79,-100.82 -12.68,-39.73 -18.95,-85.75 -18.95,-138.06l0 -43.71zm173.43 43.71c0,61.5 8.34,106.69 25.01,134.93 16.67,28.44 40.03,42.65 69.63,42.65 31.45,0 55.03,-14.21 70.86,-42.65 15.86,-28.24 23.78,-73.43 23.78,-134.93l0 -43.71c0,-60.44 -8.35,-105.2 -25.02,-134.48 -16.7,-29.06 -40.23,-43.7 -70.89,-43.7 -29.17,0 -52.09,14.64 -68.58,43.7 -16.45,29.29 -24.79,74.05 -24.79,134.48l0 43.71 0 0zm983.9 -1.22c0,104.15 -17.93,184.05 -53.58,239.46 -35.64,55.64 -88.61,83.47 -159.03,83.47 -28.17,0 -52.75,-5.85 -74.22,-17.17 -21.48,-11.49 -39.84,-27.58 -55.24,-48.51l0 308.3 -172.8 0 0 -918 159.86 0 6.25 60.63c15.83,-23.21 34.81,-41.18 57.11,-53.95 22.1,-12.54 48.15,-19.04 77.77,-19.04 71.29,0 124.65,26.35 160.29,79.06 35.64,52.71 53.58,133.48 53.58,242.22l0 43.52 0 0zm-172.41 -43.54c0,-31.59 -1.44,-58.35 -4.77,-80.72 -3.35,-22.16 -8.56,-40.38 -15.86,-54.41 -7.27,-14.21 -16.88,-24.44 -28.57,-30.94 -11.45,-6.69 -25.81,-9.83 -42.91,-9.83 -18.36,0 -33.98,3.77 -46.7,11.53 -12.91,7.92 -23.15,18.8 -30.84,33.23l0 310.61c7.26,13.41 17.28,24.08 30.22,31.6 12.68,7.52 28.96,11.27 48.54,11.27 34.2,0 57.96,-14.42 71.08,-43.48 13.37,-29.07 19.8,-74.05 19.8,-135.32l0 -43.54zm857.6 176.31c0,-8.56 -2.1,-16.31 -6.47,-23.42 -4.16,-7.3 -10.85,-14.42 -20,-21.51 -9.18,-7.12 -21.07,-14.46 -35.86,-21.76 -14.61,-7.35 -32.1,-15.48 -52.53,-24.47 -30.04,-12.33 -56.72,-24.92 -79.86,-37.64 -23.32,-12.97 -42.95,-27.4 -58.78,-43.52 -15.83,-16.12 -27.91,-34.31 -36.05,-54.59 -8.13,-20.28 -12.11,-43.7 -12.11,-70.27 0,-27.62 5.21,-53.76 15.65,-78.02 10.19,-24.26 25.2,-45.59 44.83,-63.81 19.56,-18.18 43.35,-32.42 71.69,-42.88 28.34,-10.44 60.45,-15.69 96.31,-15.69 36.87,0 70.24,5.02 99.85,15.08 29.39,10.01 54.62,24.26 75.23,42.26 20.86,18.18 36.69,40.12 47.76,65.65 11.03,25.52 16.45,53.75 16.45,84.92l-172.8 0c0,-25.31 -5.22,-45.16 -15.22,-59.61 -10.19,-14.22 -27.51,-21.34 -51.88,-21.34 -18.36,0 -33.59,5.65 -45.26,17.17 -11.86,11.5 -17.71,27.4 -17.71,47.69 0,8.57 1.88,16.31 5.85,22.99 3.77,6.9 10.02,13.37 18.76,20.1 8.75,6.47 20.43,13.16 34.61,20.06 14.17,6.91 31.66,15.08 52.53,23.87 32.93,12.32 61.5,25.31 85.86,38.68 24.19,13.37 44.21,28.45 60.05,44.98 15.84,16.52 27.73,35.36 35.43,56.06 7.74,20.9 11.68,44.94 11.68,72.34 0,29.5 -5.81,56.29 -17.1,80.33 -11.46,24.04 -27.69,44.76 -48.54,61.93 -21.05,17.14 -46.28,30.51 -76.1,40.13 -29.79,9.65 -62.94,14.45 -99.41,14.45 -40.46,0 -75.89,-6.29 -106.72,-18.84 -30.67,-12.32 -56.51,-28.85 -77.15,-49.56 -20.82,-20.71 -36.48,-43.92 -47.1,-69.88 -10.63,-25.91 -15.83,-52.48 -15.83,-79.24l164.27 0c0.39,17.76 2.89,32.61 7.26,44.33 4.59,11.71 10.63,20.92 18.15,27.84 7.52,6.9 16.45,11.71 26.9,14.42 10.19,2.71 21.69,3.97 33.76,3.97 46.49,0 69.63,-20.92 69.63,-63.19l0 0zm542.38 190.16c-45.22,0 -85.24,-7.12 -120.28,-20.92 -35.03,-13.82 -64.6,-33.88 -88.6,-60.02 -23.97,-26.17 -42.3,-58.16 -54.58,-96.02 -12.52,-37.63 -18.55,-80.72 -18.55,-128.85l0 -54.58c0,-53.98 5.81,-101.23 17.93,-141.83 12.07,-40.78 29.39,-74.87 51.88,-102.48 22.52,-27.4 50.24,-48.31 82.97,-62.11 32.94,-13.81 70.02,-20.93 111.53,-20.93 83.79,0 146.74,27.19 188.63,81.6 42.12,54.37 62.94,134.88 62.94,241.35l0 79.07 -343.72 0c1.27,26.57 4.8,48.95 10.63,66.95 5.85,17.97 13.99,32.44 24.19,43.49 10.24,10.88 22.52,18.84 36.91,23.86 14.39,4.81 30.84,7.3 49.2,7.3 30.44,0 57.73,-5.21 81.48,-15.69 23.75,-10.23 44.83,-24.87 63.16,-43.71l67.74 104.81c-8.53,11.93 -19.59,23.65 -33.55,35.14 -13.77,11.72 -30.01,22.16 -48.77,31.6 -18.75,9.39 -40.02,17.13 -63.58,22.99 -23.57,5.85 -49.39,9 -77.54,9l-0.01 -0.01zm-18.97 -543.61c-30.01,0 -51.89,10.85 -65.65,32.39 -13.56,21.77 -21.7,56.51 -23.97,104.19l172.8 0 0 -15.9c-0.83,-39.54 -7.3,-69.66 -19.6,-90.16 -12.29,-20.29 -33.36,-30.52 -63.58,-30.52l0 0zm676.65 35.54c-7.71,-0.83 -17.1,-1.88 -28.34,-3.15 -11.28,-1.22 -20.86,-1.87 -29,-1.87 -24.79,0 -45.01,5.45 -60.45,16.12 -15.43,10.44 -27.29,26.14 -35.42,46.42l0 438.2 -173.42 0 0 -663.03 163 0 4.77 71.72c13.13,-26.57 29.17,-47.28 47.94,-61.89 18.98,-14.65 40.68,-22.2 65.25,-22.2 7.75,0 16.06,0.83 25.23,2.31 9.19,1.44 16.67,3.32 22.31,5.85l-1.88 171.51 0 0zm316.43 250.57l83.58 -417.88 180.11 0 -181.37 663.03 -164.85 0 -181.98 -663.03 180.71 0 83.8 417.88zm526.33 245.14l-173.41 0 0 -663.03 173.41 0 0 663.03zm-181.33 -834.56c0,-13.59 2.27,-25.92 6.66,-37.24 4.37,-11.06 10.84,-20.89 18.98,-29.06 8.13,-8.14 17.93,-14.42 29.61,-18.79 11.68,-4.63 24.59,-6.91 38.75,-6.91 14.18,0 27.12,2.28 38.79,6.91 11.68,4.37 21.47,10.66 29.58,18.79 8.13,8.17 14.38,18 18.98,29.06 4.37,11.32 6.69,23.65 6.69,37.24 0,13.41 -2.31,25.74 -6.69,37.02 -4.6,11.32 -10.85,21.14 -18.98,29.49 -8.11,8.39 -17.9,14.65 -29.58,19.24 -11.68,4.41 -24.62,6.73 -38.79,6.73 -14.17,0 -27.08,-2.31 -38.75,-6.73 -11.68,-4.59 -21.48,-10.84 -29.61,-19.24 -8.14,-8.35 -14.61,-18.18 -18.98,-29.49 -4.38,-11.28 -6.66,-23.61 -6.66,-37.02zm553.85 702.78c24.19,0 42.72,-7.52 55.85,-22.37 13.34,-14.82 20.25,-40.16 20.65,-75.7l162.39 0c-0.44,37.63 -6.66,71.55 -18.98,101.44 -12.29,30.12 -28.74,55.43 -49.82,76.35 -20.82,20.9 -45.66,36.81 -74.18,47.69 -28.57,11.06 -59.22,16.74 -92.15,16.74 -44.4,0 -83.19,-7.35 -116.12,-21.55 -32.94,-14.25 -60.23,-34.92 -82.13,-62.14 -21.66,-27.19 -37.93,-60.62 -48.77,-100.18 -10.84,-39.73 -16.26,-84.92 -16.26,-135.53l0 -47.68c0,-50.83 5.42,-96.02 16.26,-135.75 10.84,-39.94 26.9,-73.43 48.59,-100.82 21.48,-27.4 48.77,-48.3 81.7,-62.55 33.16,-14.21 71.52,-21.54 115.47,-21.54 35.46,0 67.75,5.64 96.74,16.95 29.17,11.27 53.98,27.8 74.62,49.56 20.42,21.97 36.48,48.95 47.54,81.37 11.24,32.22 17.07,69.45 17.5,112.11l-162.39 0c-0.4,-37.24 -6.66,-65.91 -18.33,-85.75 -11.89,-20.1 -31.49,-30.11 -58.78,-30.11 -18.98,0 -34.2,3.75 -45.45,11.71 -11.27,7.75 -19.8,19.02 -25.63,33.88 -5.85,15.04 -9.79,33.26 -11.68,55.21 -1.67,21.76 -2.72,47.06 -2.72,75.73l0 47.68c0,29.07 0.83,54.38 2.5,76.35 1.67,21.73 5.42,40.13 11.24,54.81 5.85,14.64 14.61,25.71 26.06,33.04 11.25,7.52 26.9,11.06 46.28,11.06l0 0zm603.47 144.14c-45.22,0 -85.24,-7.12 -120.28,-20.93 -35.03,-13.82 -64.63,-33.88 -88.6,-60.02 -23.97,-26.17 -42.3,-58.16 -54.59,-96.02 -12.51,-37.63 -18.58,-80.72 -18.58,-128.84l0 -54.59c0,-53.98 5.85,-101.23 17.93,-141.82 12.11,-40.78 29.39,-74.87 51.92,-102.49 22.52,-27.4 50.24,-48.3 82.97,-62.11 32.93,-13.81 70.02,-20.92 111.52,-20.92 83.8,0 146.75,27.18 188.65,81.59 42.12,54.38 62.94,134.88 62.94,241.36l0 79.06 -343.73 0c1.27,26.57 4.81,48.95 10.64,66.95 5.85,17.97 13.99,32.44 24.19,43.49 10.23,10.88 22.52,18.84 36.91,23.87 14.35,4.8 30.83,7.29 49.16,7.29 30.44,0 57.77,-5.21 81.53,-15.69 23.75,-10.23 44.83,-24.86 63.15,-43.7l67.75 104.79c-8.53,11.93 -19.6,23.65 -33.55,35.15 -13.77,11.71 -30.04,22.16 -48.77,31.59 -18.76,9.4 -40.06,17.14 -63.58,22.99 -23.58,5.85 -49.42,9 -77.54,9l-0.01 0zm-18.98 -543.61c-30,0 -51.91,10.84 -65.65,32.39 -13.55,21.76 -21.69,56.5 -23.97,104.19l172.81 0 0 -15.91c-0.83,-39.54 -7.3,-69.66 -19.6,-90.16 -12.29,-20.29 -33.37,-30.51 -63.59,-30.51l0 0zm-21354.05 143.48l0 238.24 114.9 0c17.5,0 32.5,-2.93 44.79,-8.61 12.51,-5.64 22.74,-13.81 30.66,-24.26 7.92,-10.23 13.74,-22.59 17.28,-36.36 3.75,-13.82 5.64,-29.32 5.64,-46.02 0,-37.89 -7.08,-68 -21.04,-89.94 -14.18,-22.2 -37.96,-33.04 -71.29,-33.04l-120.93 0 -0.01 0zm0 -131.16l93.42 0c35.83,0 62.5,-9.39 79.83,-28.01 17.31,-18.62 25.85,-45.81 25.85,-81.77 0,-40.39 -8.14,-69.45 -24.4,-87.02 -16.23,-17.57 -42.73,-26.36 -79.43,-26.36l-95.27 0 0 223.16zm780.45 531.29c-45.23,0 -85.25,-7.12 -120.28,-20.93 -35,-13.81 -64.6,-33.88 -88.57,-60 -23.97,-26.18 -42.34,-58.17 -54.62,-96.02 -12.51,-37.64 -18.55,-80.73 -18.55,-128.85l0 -54.59c0,-53.98 5.85,-101.23 17.93,-141.82 12.07,-40.78 29.39,-74.87 51.91,-102.49 22.49,-27.4 50.22,-48.3 82.98,-62.11 32.93,-13.81 70.02,-20.92 111.49,-20.92 83.79,0 146.78,27.18 188.68,81.59 42.07,54.38 62.94,134.88 62.94,241.36l0 79.06 -343.73 0c1.23,26.57 4.77,48.96 10.63,66.96 5.82,17.96 13.96,32.42 24.2,43.48 10.18,10.88 22.48,18.84 36.87,23.87 14.39,4.8 30.87,7.3 49.2,7.3 30.44,0 57.73,-5.21 81.53,-15.69 23.75,-10.24 44.79,-24.87 63.15,-43.71l67.75 104.81c-8.57,11.93 -19.6,23.64 -33.59,35.14 -13.73,11.71 -30.01,22.16 -48.77,31.59 -18.76,9.4 -40.02,17.14 -63.58,22.99 -23.54,5.86 -49.39,9 -77.54,9l0 0zm-18.95 -543.61c-30.04,0 -51.91,10.84 -65.68,32.39 -13.53,21.76 -21.65,56.51 -23.97,104.19l172.8 0 0 -15.9c-0.83,-39.55 -7.26,-69.66 -19.6,-90.17 -12.29,-20.28 -33.33,-30.51 -63.55,-30.51zm559.49 286.11l83.58 -417.87 180.11 0 -181.37 663.02 -164.89 0 -181.95 -663.02 180.72 0 83.8 417.87zm603.87 257.51c-45.22,0 -85.24,-7.12 -120.28,-20.93 -35.03,-13.81 -64.64,-33.88 -88.6,-60 -23.97,-26.18 -42.3,-58.17 -54.59,-96.02 -12.51,-37.64 -18.55,-80.73 -18.55,-128.85l0 -54.59c0,-53.98 5.82,-101.23 17.9,-141.82 12.11,-40.78 29.39,-74.87 51.91,-102.49 22.53,-27.4 50.25,-48.3 82.98,-62.11 32.93,-13.81 70.02,-20.92 111.52,-20.92 83.8,0 146.75,27.18 188.65,81.59 42.12,54.38 62.94,134.88 62.94,241.36l0 79.06 -343.73 0c1.27,26.57 4.81,48.96 10.64,66.96 5.85,17.96 13.99,32.42 24.19,43.48 10.23,10.88 22.52,18.84 36.91,23.87 14.38,4.8 30.83,7.3 49.2,7.3 30.4,0 57.73,-5.21 81.48,-15.69 23.75,-10.24 44.82,-24.87 63.15,-43.71l67.75 104.81c-8.53,11.93 -19.6,23.64 -33.55,35.14 -13.77,11.71 -30.01,22.16 -48.77,31.59 -18.76,9.4 -40.02,17.14 -63.59,22.99 -23.57,5.86 -49.42,9 -77.53,9l-0.01 0zm-18.98 -543.61c-30.01,0 -51.92,10.84 -65.65,32.39 -13.56,21.76 -21.69,56.51 -23.97,104.19l172.8 0 0 -15.9c-0.83,-39.55 -7.29,-69.66 -19.59,-90.17 -12.29,-20.28 -33.37,-30.51 -63.59,-30.51l0 0zm531.98 531.26l-173.42 0 0 -663.03 173.42 0 0 663.03zm-181.34 -834.56c0,-13.6 2.28,-25.92 6.66,-37.24 4.37,-11.06 10.84,-20.89 18.98,-29.07 8.13,-8.13 17.93,-14.42 29.61,-18.79 11.68,-4.63 24.59,-6.9 38.75,-6.9 14.18,0 27.12,2.27 38.79,6.9 11.68,4.37 21.48,10.67 29.61,18.79 8.1,8.18 14.35,18 18.95,29.07 4.37,11.32 6.69,23.64 6.69,37.24 0,13.41 -2.31,25.74 -6.69,37.01 -4.6,11.32 -10.85,21.15 -18.95,29.5 -8.13,8.38 -17.93,14.64 -29.61,19.23 -11.68,4.41 -24.62,6.73 -38.79,6.73 -14.18,0 -27.08,-2.31 -38.75,-6.73 -11.68,-4.59 -21.48,-10.84 -29.61,-19.23 -8.14,-8.35 -14.61,-18.19 -18.98,-29.5 -4.37,-11.27 -6.66,-23.6 -6.66,-37.01zm496.55 834.56l-173.46 0 0 -941.21 173.46 0 0 941.21zm315.17 0l-173.42 0 0 -663.03 173.42 0 0 663.03zm-181.37 -834.56c0,-13.6 2.31,-25.92 6.69,-37.24 4.38,-11.06 10.85,-20.89 18.98,-29.07 8.14,-8.13 17.9,-14.42 29.58,-18.79 11.68,-4.63 24.62,-6.9 38.79,-6.9 14.18,0 27.08,2.27 38.75,6.9 11.68,4.37 21.48,10.67 29.61,18.79 8.14,8.18 14.39,18 18.98,29.07 4.37,11.32 6.66,23.64 6.66,37.24 0,13.41 -2.28,25.74 -6.66,37.01 -4.59,11.32 -10.84,21.15 -18.98,29.5 -8.13,8.38 -17.93,14.64 -29.61,19.23 -11.68,4.41 -24.59,6.73 -38.75,6.73 -14.18,0 -27.12,-2.31 -38.79,-6.73 -11.68,-4.59 -21.44,-10.84 -29.58,-19.23 -8.13,-8.35 -14.6,-18.19 -18.98,-29.5 -4.37,-11.27 -6.69,-23.6 -6.69,-37.01zm294.35 482.76c0,-108.56 19.6,-189.73 58.56,-243.26 39.19,-53.54 94.03,-80.33 164.49,-80.33 32.11,0 59.4,6.3 81.7,18.84 22.53,12.32 41.29,29.89 56.91,52.28l6.69 -58.75 155.71 0 0 663.03c0,45.41 -6.65,84.52 -19.81,117.35 -13.34,32.83 -31.88,60.05 -55.85,81.16 -24.19,21.34 -52.97,37.02 -86.51,47.29 -33.55,10.24 -70.89,15.26 -112.14,15.26 -15.44,0 -32.54,-1.66 -51.3,-4.8 -18.76,-3.36 -37.31,-8.18 -56.08,-14.43 -18.76,-6.5 -36.68,-14.45 -53.58,-23.86 -16.88,-9.62 -31.05,-21.11 -42.29,-34.09l57.95 -120.06c7.71,8.18 17.1,15.69 27.73,22.99 10.84,7.13 22.3,13.2 34.38,18.23 11.89,5.21 24.4,9.18 37.53,12.32 12.93,3.15 25.63,4.59 37.73,4.59 17.5,0 33.12,-1.88 46.67,-5.85 13.77,-3.77 25.23,-10.45 34.64,-19.84 9.36,-9.44 16.45,-21.98 21.04,-37.46 4.6,-15.47 7.09,-34.92 7.09,-58.13l0 -53.36c-15.83,20.92 -34.38,36.84 -55.24,48.11 -21.07,11.28 -45.65,16.95 -73.56,16.95 -35.03,0 -66.3,-7.12 -93.82,-20.92 -27.51,-13.82 -50.64,-34.31 -69.62,-61.28 -18.98,-26.97 -33.55,-60.45 -43.78,-100.18 -10.01,-39.77 -15.21,-85.97 -15.21,-138.28l0 -43.49 -0.01 0zm172.8 43.49c0,61.27 7.92,106.06 23.97,134.08 15.84,27.8 41.08,41.83 75.67,41.83 18.76,0 34.41,-3.36 47.32,-10.05 12.73,-6.69 23.35,-16.31 31.49,-28.45l0 -316.86c-8.54,-13.38 -19.38,-23.87 -32.11,-31.17 -12.94,-7.51 -27.94,-11.09 -45.44,-11.09 -34.2,0 -59.61,14.02 -76.1,42.26 -16.45,28.23 -24.8,73.42 -24.8,135.96l0 43.49zm658.51 308.3l-173.42 0 0 -663.03 173.42 0 0 663.03zm-181.34 -834.56c0,-13.6 2.28,-25.92 6.66,-37.24 4.37,-11.06 10.84,-20.89 18.98,-29.07 8.13,-8.13 17.93,-14.42 29.61,-18.79 11.68,-4.63 24.59,-6.9 38.75,-6.9 14.18,0 27.12,2.27 38.79,6.9 11.65,4.37 21.44,10.67 29.58,18.79 8.13,8.18 14.38,18 18.98,29.07 4.37,11.32 6.69,23.64 6.69,37.24 0,13.41 -2.31,25.74 -6.69,37.01 -4.6,11.32 -10.85,21.15 -18.98,29.5 -8.14,8.38 -17.93,14.64 -29.58,19.23 -11.68,4.41 -24.62,6.73 -38.79,6.73 -14.18,0 -27.08,-2.31 -38.75,-6.73 -11.68,-4.59 -21.48,-10.84 -29.61,-19.23 -8.14,-8.35 -14.61,-18.19 -18.98,-29.5 -4.37,-11.27 -6.66,-23.6 -6.66,-37.01zm473.37 171.54l4.8 65.65c19.16,-25.53 41.47,-44.76 67.13,-57.92 25.64,-13.41 54.41,-20.1 86.08,-20.1 25.63,0 49.42,4.41 70.89,13.19 21.65,8.79 40.2,23.21 55.64,43.28 15.43,20.1 27.51,46.24 36.04,78.45 8.57,32.21 12.73,71.94 12.73,118.8l0 421.67 -173.42 0 0 -422.29c0,-21.11 -1.66,-38.68 -4.8,-52.5 -3.32,-14.02 -8.14,-25.12 -14.39,-33.26 -6.25,-8.17 -14.17,-13.81 -23.53,-17.17 -9.4,-3.11 -20.43,-4.81 -32.94,-4.81 -16.26,0 -30.66,4.2 -42.73,12.77 -12.29,8.57 -22.52,20.49 -30.66,35.57l0 481.68 -173.42 0 0 -663.03 162.58 0 0 0.01zm436.53 311.23c0,-108.56 19.56,-189.73 58.56,-243.26 39.18,-53.54 93.99,-80.33 164.45,-80.33 32.11,0 59.4,6.3 81.7,18.84 22.53,12.32 41.29,29.89 56.94,52.28l6.66 -58.75 155.71 0 0 663.03c0,45.41 -6.66,84.52 -19.77,117.35 -13.38,32.83 -31.93,60.05 -55.9,81.16 -24.19,21.34 -52.92,37.02 -86.5,47.29 -33.55,10.24 -70.86,15.26 -112.14,15.26 -15.44,0 -32.51,-1.66 -51.27,-4.8 -18.76,-3.36 -37.3,-8.18 -56.06,-14.43 -18.76,-6.5 -36.69,-14.45 -53.58,-23.86 -16.89,-9.62 -31.06,-21.11 -42.34,-34.09l57.96 -120.06c7.74,8.18 17.1,15.69 27.72,22.99 10.85,7.13 22.3,13.2 34.42,18.23 11.85,5.21 24.36,9.18 37.49,12.32 12.94,3.15 25.67,4.59 37.74,4.59 17.5,0 33.16,-1.88 46.7,-5.85 13.74,-3.77 25.2,-10.45 34.61,-19.84 9.36,-9.44 16.44,-21.98 21.04,-37.46 4.59,-15.47 7.09,-34.92 7.09,-58.13l0 -53.36c-15.84,20.92 -34.38,36.84 -55.24,48.11 -21.04,11.28 -45.66,16.95 -73.57,16.95 -35.03,0 -66.3,-7.12 -93.81,-20.92 -27.51,-13.82 -50.64,-34.31 -69.63,-61.28 -18.94,-26.97 -33.55,-60.45 -43.77,-100.18 -9.98,-39.77 -15.18,-85.97 -15.18,-138.28l0 -43.49 0 0zm172.8 43.49c0,61.27 7.91,106.06 23.97,134.08 15.83,27.8 41.03,41.83 75.66,41.83 18.76,0 34.38,-3.36 47.32,-10.05 12.69,-6.69 23.32,-16.31 31.46,-28.45l0 -316.86c-8.54,-13.38 -19.38,-23.87 -32.11,-31.17 -12.91,-7.51 -27.91,-11.09 -45.44,-11.09 -34.16,0 -59.61,14.02 -76.06,42.26 -16.49,28.23 -24.8,73.42 -24.8,135.96l0 43.49 0 0zm769.59 130.5c0,-8.57 -2.09,-16.31 -6.47,-23.42 -4.16,-7.3 -10.84,-14.42 -20.02,-21.51 -9.16,-7.13 -21.05,-14.46 -35.83,-21.77 -14.61,-7.33 -32.11,-15.47 -52.53,-24.47 -30.05,-12.32 -56.72,-24.91 -79.86,-37.63 -23.36,-12.98 -42.95,-27.4 -58.78,-43.54 -15.84,-16.12 -27.92,-34.31 -36.05,-54.58 -8.14,-20.29 -12.12,-43.71 -12.12,-70.28 0,-27.62 5.22,-53.76 15.66,-78.02 10.19,-24.26 25.19,-45.58 44.79,-63.8 19.6,-18.19 43.38,-32.42 71.72,-42.88 28.35,-10.45 60.45,-15.69 96.32,-15.69 36.87,0 70.24,5.02 99.85,15.07 29.39,10.02 54.62,24.26 75.23,42.26 20.86,18.19 36.69,40.13 47.75,65.65 11.03,25.52 16.45,53.76 16.45,84.92l-172.8 0c0,-25.31 -5.21,-45.15 -15.21,-59.61 -10.19,-14.21 -27.52,-21.33 -51.88,-21.33 -18.36,0 -33.59,5.64 -45.26,17.17 -11.86,11.49 -17.71,27.4 -17.71,47.68 0,8.57 1.88,16.31 5.85,23 3.72,6.9 9.98,13.37 18.72,20.1 8.79,6.47 20.46,13.16 34.64,20.06 14.18,6.9 31.67,15.07 52.53,23.86 32.94,12.33 61.5,25.31 85.87,38.68 24.19,13.38 44.21,28.45 60.05,44.98 15.83,16.52 27.72,35.36 35.43,56.08 7.74,20.89 11.68,44.93 11.68,72.34 0,29.49 -5.82,56.29 -17.1,80.33 -11.46,24.04 -27.73,44.75 -48.56,61.92 -21.04,17.14 -46.27,30.52 -76.1,40.13 -29.78,9.66 -62.94,14.46 -99.41,14.46 -40.45,0 -75.88,-6.3 -106.72,-18.84 -30.66,-12.32 -56.51,-28.85 -77.14,-49.56 -20.82,-20.72 -36.48,-43.93 -47.1,-69.88 -10.64,-25.92 -15.84,-52.5 -15.84,-79.24l164.24 0c0.43,17.75 2.92,32.61 7.3,44.32 4.59,11.72 10.63,20.93 18.15,27.84 7.52,6.9 16.45,11.72 26.89,14.42 10.19,2.72 21.65,3.98 33.77,3.98 46.49,0 69.62,-20.93 69.62,-63.19l0 0zm514.26 46.02c24.14,0 42.73,-7.52 55.85,-22.38 13.34,-14.81 20.21,-40.16 20.65,-75.7l162.36 0c-0.4,37.64 -6.66,71.55 -18.95,101.44 -12.29,30.12 -28.77,55.43 -49.82,76.36 -20.85,20.89 -45.65,36.8 -74.21,47.68 -28.57,11.06 -59.22,16.74 -92.15,16.74 -44.4,0 -83.15,-7.35 -116.09,-21.54 -32.93,-14.25 -60.26,-34.92 -82.13,-62.15 -21.69,-27.18 -37.96,-60.62 -48.8,-100.18 -10.81,-39.73 -16.23,-84.92 -16.23,-135.52l0 -47.69c0,-50.83 5.42,-96.02 16.23,-135.75 10.84,-39.94 26.89,-73.43 48.59,-100.82 21.47,-27.4 48.77,-48.3 81.7,-62.55 33.16,-14.21 71.51,-21.54 115.5,-21.54 35.43,0 67.75,5.64 96.71,16.95 29.17,11.27 53.98,27.8 74.61,49.56 20.46,21.98 36.52,48.95 47.55,81.38 11.24,32.21 17.1,69.44 17.5,112.1l-162.36 0c-0.43,-37.24 -6.69,-65.9 -18.36,-85.75 -11.86,-20.1 -31.46,-30.11 -58.78,-30.11 -18.98,0 -34.16,3.77 -45.45,11.72 -11.24,7.74 -19.81,19.01 -25.63,33.88 -5.82,15.03 -9.8,33.26 -11.68,55.2 -1.67,21.76 -2.72,47.06 -2.72,75.73l0 47.69c0,29.06 0.83,54.37 2.5,76.35 1.66,21.73 5.42,40.13 11.27,54.8 5.82,14.65 14.57,25.71 26.03,33.04 11.28,7.52 26.9,11.07 46.31,11.07l0 0zm650.55 131.77c-3.32,-6.9 -6.04,-14.82 -8.31,-23.61 -2.31,-8.79 -4.37,-18 -6.47,-27.83 -12.91,18 -29.82,33.03 -50.25,45.37 -20.61,12.15 -45.84,18.43 -75.45,18.43 -26.9,0 -52.09,-4.8 -75.46,-14.25 -23.35,-9.39 -43.77,-22.59 -61.1,-39.73 -17.28,-17.14 -30.84,-37.85 -40.85,-62.32 -10.01,-24.27 -15.01,-51.45 -15.01,-81.78 0,-33.47 5.43,-63.8 16.27,-90.99 10.63,-27.19 26.9,-50.21 48.77,-69.23 21.69,-19.05 48.98,-33.47 81.92,-43.74 32.71,-10.24 71.29,-15.47 115.69,-15.47l46.92 0 0 -53.11c0,-29.94 -5.02,-51.04 -15.21,-63.15 -10.24,-12.37 -25.02,-18.43 -44.62,-18.43 -22.3,0 -38.79,6.72 -49.2,19.87 -10.23,13.38 -15.43,32 -15.43,56.08l-172.81 0c0,-28.89 5.42,-56.29 16.71,-81.81 11.24,-25.48 27.29,-47.9 48.56,-67.13 21.25,-19.23 46.7,-34.31 76.28,-45.58 29.82,-11.32 63.37,-16.95 100.9,-16.95 32.94,0 63.15,4.19 90.89,12.76 27.72,8.38 51.69,21.33 72.12,39.12 20.42,17.79 36.26,40.38 47.54,67.97 11.46,27.61 17.1,60.87 17.1,99.56l0 294.3c0,19.02 0.62,36.19 1.67,51.04 1.05,14.82 2.5,28.45 4.59,40.56 1.88,11.93 4.59,22.82 7.49,32.44 3.14,9.61 6.69,18.61 10.84,27.18l0 10.45 -174.07 0 0 0zm-102.13 -123.82c19.16,0 35.43,-3.77 48.99,-11.5 13.34,-7.95 23.35,-17.14 29.82,-27.62l0 -138.02 -40.88 0c-16.23,0 -30.22,2.71 -42.08,8.13 -11.89,5.25 -21.7,12.58 -29.61,21.98 -7.92,9.4 -13.96,20.5 -17.71,33.04 -3.98,12.77 -5.85,26.14 -5.85,40.56 0,24.08 5.02,42.26 15,54.81 10.01,12.37 24,18.62 42.33,18.62zm539.27 -539.21l4.77 61.28c18.36,-23.21 40.23,-41.43 65.68,-54.19 25.64,-12.94 54.81,-19.44 87.74,-19.44 30.45,0 57.96,7.33 82.14,21.54 24.19,14.25 43.35,37.01 57.73,68 17.93,-28.27 40.23,-50.21 66.92,-65.9 26.47,-15.7 58.16,-23.65 94.87,-23.65 26.86,0 51.26,4.63 72.95,13.6 21.87,9 40.42,23.42 55.86,43.52 15.62,20.06 27.51,46.2 36.08,78.41 8.53,32.21 12.91,71.76 12.91,118.18l0 421.68 -172.81 0 0 -422.29c0,-21.98 -1.66,-39.96 -4.59,-53.76 -3.11,-14.03 -7.71,-24.91 -13.73,-32.83 -6.25,-7.95 -13.56,-13.59 -22.13,-16.52 -8.53,-3.15 -18.33,-4.63 -29.17,-4.63 -17.1,0 -31.67,5.25 -43.35,15.9 -11.89,10.67 -21.47,25.09 -28.77,43.49 0.43,4.41 0.62,9.22 0.83,14.03 0.22,5.02 0.43,9.82 0.43,14.85l0 441.74 -172.8 0 0 -421.03c0,-21.97 -1.67,-40.16 -4.59,-54.18 -3.15,-14.03 -7.52,-25.31 -13.56,-33.48 -5.82,-8.13 -13.13,-13.77 -21.87,-16.7 -8.79,-3.15 -18.76,-4.63 -29.61,-4.63 -16.06,0 -29.62,4.2 -41.29,12.76 -11.68,8.57 -21.47,20.5 -29.61,35.58l0 481.68 -172.8 0 0 -663.03 161.78 0 0 0zm1032.02 675.39c-45.22,0 -85.25,-7.12 -120.28,-20.93 -35,-13.82 -64.6,-33.88 -88.57,-60.02 -23.97,-26.17 -42.33,-58.16 -54.62,-96.02 -12.51,-37.63 -18.55,-80.72 -18.55,-128.84l0 -54.59c0,-53.98 5.82,-101.23 17.93,-141.82 12.08,-40.78 29.39,-74.87 51.92,-102.49 22.48,-27.4 50.21,-48.3 82.97,-62.11 32.9,-13.81 70.02,-20.92 111.49,-20.92 83.8,0 146.78,27.18 188.68,81.59 42.08,54.38 62.94,134.88 62.94,241.36l0 79.06 -343.72 0c1.22,26.57 4.77,48.95 10.63,66.95 5.82,17.97 13.95,32.44 24.19,43.49 10.19,10.88 22.49,18.84 36.88,23.87 14.38,4.8 30.87,7.29 49.19,7.29 30.44,0 57.74,-5.21 81.53,-15.69 23.75,-10.23 44.79,-24.86 63.16,-43.7l67.74 104.79c-8.57,11.93 -19.59,23.65 -33.58,35.15 -13.74,11.71 -30.01,22.16 -48.77,31.59 -18.76,9.4 -40.02,17.14 -63.59,22.99 -23.53,5.85 -49.38,9 -77.54,9l0 0zm-18.94 -543.61c-30.05,0 -51.92,10.84 -65.69,32.39 -13.52,21.76 -21.65,56.5 -23.97,104.19l172.8 0 0 -15.91c-0.83,-39.54 -7.26,-69.66 -19.59,-90.16 -12.29,-20.29 -33.34,-30.51 -63.55,-30.51zm676.6 35.53c-7.69,-0.82 -17.1,-1.87 -28.34,-3.14 -11.24,-1.23 -20.82,-1.88 -28.96,-1.88 -24.83,0 -45.04,5.46 -60.48,16.12 -15.4,10.45 -27.29,26.14 -35.43,46.42l0 438.2 -173.42 0 0 -663.03 163.01 0 4.8 71.73c13.13,-26.58 29.17,-47.29 47.94,-61.9 18.95,-14.64 40.63,-22.2 65.22,-22.2 7.74,0 16.05,0.83 25.23,2.31 9.19,1.45 16.71,3.32 22.3,5.85l-1.88 171.51 0 0zm384.19 495.72c-3.33,-6.9 -6.04,-14.82 -8.31,-23.61 -2.31,-8.79 -4.41,-18 -6.48,-27.83 -12.94,18 -29.82,33.03 -50.24,45.37 -20.65,12.15 -45.85,18.43 -75.46,18.43 -26.89,0 -52.12,-4.8 -75.48,-14.25 -23.32,-9.39 -43.75,-22.59 -61.06,-39.73 -17.32,-17.14 -30.84,-37.85 -40.85,-62.32 -10.02,-24.27 -15.01,-51.45 -15.01,-81.78 0,-33.47 5.43,-63.8 16.27,-90.99 10.63,-27.19 26.86,-50.21 48.76,-69.23 21.65,-19.05 48.99,-33.47 81.93,-43.74 32.71,-10.24 71.29,-15.47 115.69,-15.47l46.88 0 0 -53.11c0,-29.94 -4.98,-51.04 -15.21,-63.15 -10.19,-12.37 -24.99,-18.43 -44.62,-18.43 -22.3,0 -38.75,6.72 -49.16,19.87 -10.24,13.38 -15.44,32 -15.44,56.08l-172.8 0c0,-28.89 5.42,-56.29 16.67,-81.81 11.27,-25.48 27.33,-47.9 48.59,-67.13 21.26,-19.23 46.67,-34.31 76.28,-45.58 29.83,-11.32 63.38,-16.95 100.91,-16.95 32.93,0 63.15,4.19 90.89,12.76 27.72,8.38 51.69,21.33 72.11,39.12 20.43,17.79 36.26,40.38 47.55,67.97 11.46,27.61 17.06,60.87 17.06,99.56l0 294.3c0,19.02 0.66,36.19 1.67,51.04 1.05,14.82 2.53,28.45 4.59,40.56 1.88,11.93 4.6,22.82 7.52,32.44 3.11,9.61 6.66,18.61 10.85,27.18l0 10.45 -174.08 0 0.01 0zm-102.13 -123.82c19.15,0 35.43,-3.77 48.99,-11.5 13.33,-7.95 23.35,-17.14 29.78,-27.62l0 -138.02 -40.85 0c-16.26,0 -30.22,2.71 -42.12,8.13 -11.86,5.25 -21.65,12.58 -29.58,21.98 -7.91,9.4 -13.99,20.5 -17.71,33.04 -3.97,12.77 -5.85,26.14 -5.85,40.56 0,24.08 4.99,42.26 15.01,54.81 10.01,12.37 23.96,18.62 42.33,18.62zm471.52 -726.61l-17.75 248.03 -112.33 0 0 -338.82 130.07 0 0 90.77 0 0.01zm332.66 672.63c0,-8.57 -2.1,-16.31 -6.47,-23.42 -4.16,-7.3 -10.81,-14.42 -19.99,-21.51 -9.19,-7.13 -21.08,-14.46 -35.86,-21.77 -14.61,-7.33 -32.11,-15.47 -52.53,-24.47 -30.01,-12.32 -56.69,-24.91 -79.83,-37.63 -23.35,-12.98 -42.95,-27.4 -58.78,-43.54 -15.87,-16.12 -27.94,-34.31 -36.08,-54.58 -8.14,-20.29 -12.08,-43.71 -12.08,-70.28 0,-27.62 5.21,-53.76 15.62,-78.02 10.24,-24.26 25.23,-45.58 44.83,-63.8 19.59,-18.19 43.34,-32.42 71.69,-42.88 28.37,-10.45 60.44,-15.69 96.31,-15.69 36.91,0 70.24,5.02 99.85,15.07 29.39,10.02 54.62,24.26 75.27,42.26 20.82,18.19 36.65,40.13 47.72,65.65 11.06,25.52 16.48,53.76 16.48,84.92l-172.8 0c0,-25.31 -5.25,-45.15 -15.22,-59.61 -10.23,-14.21 -27.54,-21.33 -51.91,-21.33 -18.33,0 -33.55,5.64 -45.22,17.17 -11.9,11.49 -17.72,27.4 -17.72,47.68 0,8.57 1.85,16.31 5.82,23 3.77,6.9 10.02,13.37 18.76,20.1 8.75,6.47 20.43,13.16 34.6,20.06 14.18,6.9 31.7,15.07 52.54,23.86 32.93,12.33 61.49,25.31 85.9,38.68 24.19,13.38 44.17,28.45 60,44.98 15.87,16.52 27.73,35.36 35.47,56.08 7.69,20.89 11.68,44.93 11.68,72.34 0,29.49 -5.85,56.29 -17.1,80.33 -11.46,24.04 -27.73,44.75 -48.6,61.92 -21.04,17.14 -46.27,30.52 -76.05,40.13 -29.83,9.66 -62.98,14.46 -99.46,14.46 -40.42,0 -75.89,-6.3 -106.72,-18.84 -30.66,-12.32 -56.51,-28.85 -77.11,-49.56 -20.86,-20.72 -36.52,-43.93 -47.15,-69.88 -10.63,-25.92 -15.83,-52.5 -15.83,-79.24l164.27 0c0.39,17.75 2.92,32.61 7.29,44.32 4.6,11.72 10.64,20.93 18.12,27.84 7.52,6.9 16.49,11.72 26.9,14.42 10.24,2.72 21.69,3.98 33.76,3.98 46.49,0 69.63,-20.93 69.63,-63.19l-0.01 0zm783.16 -77.8l-46.5 52.09 0 203.5 -172.8 0 0 -941.21 172.8 0 0 508.66 21.26 -32 119.88 -198.47 205.74 0 -191.78 273.34 210.11 389.69 -197.82 0 -120.89 -255.59 0 0zm358.95 -97.46c0,-51.88 6.25,-97.69 18.98,-137.85 12.51,-39.96 30.44,-73.6 53.79,-101.01 23.14,-27.4 51.04,-48.12 83.98,-62.14 32.75,-14.21 69.41,-21.34 110.08,-21.34 41.28,0 78.16,7.13 111.31,21.34 32.94,14.02 61.06,34.74 84.2,62.14 23.14,27.4 41.07,61.05 53.79,101.01 12.51,40.16 18.98,85.97 18.98,137.85l0 43.7c0,52.31 -6.25,98.33 -18.76,138.06 -12.29,39.94 -30.22,73.43 -53.36,100.82 -23.35,27.37 -51.3,48.08 -84.45,61.9 -32.94,13.81 -69.59,20.93 -110.48,20.93 -41.07,0 -78.16,-7.13 -111.09,-20.93 -32.94,-13.82 -61.06,-34.52 -84.2,-61.9 -23.35,-27.39 -41.28,-60.88 -53.79,-100.82 -12.73,-39.73 -18.98,-85.75 -18.98,-138.06l0 -43.7zm173.46 43.71c0,61.49 8.31,106.68 25.02,134.92 16.67,28.45 40.02,42.65 69.59,42.65 31.48,0 55.06,-14.2 70.89,-42.65 15.83,-28.24 23.75,-73.43 23.75,-134.92l0 -43.71c0,-60.45 -8.31,-105.21 -25.02,-134.48 -16.67,-29.07 -40.2,-43.71 -70.86,-43.71 -29.17,0 -52.14,14.64 -68.57,43.71 -16.49,29.28 -24.8,74.04 -24.8,134.48l0 43.71 0 0zm983.87 -1.23c0,104.15 -17.9,184.05 -53.54,239.46 -35.64,55.64 -88.61,83.48 -159.07,83.48 -28.12,0 -52.74,-5.85 -74.22,-17.18 -21.47,-11.49 -39.8,-27.58 -55.23,-48.51l0 308.3 -172.81 0 0 -917.99 159.9 0 6.25 60.62c15.83,-23.21 34.81,-41.18 57.11,-53.94 22.09,-12.55 48.15,-19.05 77.76,-19.05 71.26,0 124.66,26.36 160.3,79.06 35.64,52.71 53.53,133.48 53.53,242.22l0 43.52 0.01 0 0 0zm-172.38 -43.52c0,-31.6 -1.44,-58.35 -4.8,-80.73 -3.32,-22.16 -8.53,-40.38 -15.83,-54.41 -7.3,-14.21 -16.88,-24.43 -28.57,-30.94 -11.46,-6.69 -25.84,-9.83 -42.95,-9.83 -18.32,0 -33.98,3.77 -46.67,11.53 -12.94,7.92 -23.14,18.8 -30.87,33.23l0 310.62c7.3,13.4 17.32,24.07 30.22,31.59 12.73,7.52 29,11.27 48.59,11.27 34.2,0 57.96,-14.42 71.07,-43.48 13.34,-29.07 19.81,-74.05 19.81,-135.32l0 -43.52 0 0z"/>
 </g>
</svg>
