<?xml version="1.0" encoding="UTF-8"?>
<svg id="Camada_1" xmlns="http://www.w3.org/2000/svg" version="1.1" xmlns:xlink="http://www.w3.org/1999/xlink" viewBox="0 0 48 32">
  <!-- Generator: Adobe Illustrator 29.5.1, SVG Export Plug-In . SVG Version: 2.1.0 Build 141)  -->
  <defs>
    <clipPath id="clippath">
      <rect width="48" height="32" style="fill: none;"/>
    </clipPath>
  </defs>
  <g style="clip-path: url(#clippath);">
    <path d="M0,4C0,1.8,1.8,0,4,0h40c2.2,0,4,1.8,4,4v24c0,2.2-1.8,4-4,4H4c-2.2,0-4-1.8-4-4V4Z" style="fill: #fff;"/>
  </g>
  <g>
    <path d="M17.5,8.3c.8,0,1.4.2,1.8.5.4.3.7.8.7,1.5,0,.3,0,.7-.2.9-.1.3-.3.5-.6.6h0c.3.2.6.4.7.7.1.2.2.4.3.6,0,.2.1.5,0,.7,0,.4,0,.7-.2,1.1-.1.3-.4.6-.6.8-.3.2-.6.4-.9.5-.3.1-.7.2-1,.2h-4.3v-8h4.3ZM15.2,11.2h1.9c.2,0,.5,0,.6-.2.1-.1.2-.3.2-.5,0-.2,0-.3-.2-.5-.2-.2-.4-.2-.6-.2h-1.9v1.3ZM15.2,14.7h1.9c.3,0,.6,0,.8-.2.2-.2.2-.4.2-.6,0-.3,0-.5-.3-.7-.2-.2-.5-.2-.8-.2h-1.9v1.8Z" style="fill: #010202;"/>
    <path d="M22.2,16.3h-2.2l2.8-8h2.1l2.9,8h-2.3l-.4-1.4h-2.6l-.4,1.4ZM23.9,10.4h0l-.8,3h1.7l-.8-3Z" style="fill: #010202;"/>
    <path d="M30.2,11.6h0v4.7h-2.1v-8h2.3l2.7,4.5h0v-4.5h2.1v8h-2.1l-2.9-4.7Z" style="fill: #010202;"/>
    <path d="M38.1,8.3v2.8l2.6-2.8h2.7l-3.2,3,3.4,4.9h-2.6l-2.4-3.5-.6.6v3h-2.1v-8h2.1Z" style="fill: #010202;"/>
    <path d="M8.6,17.5v1.3h-1.4v4.7h-1.5v-4.7h-1.4v-1.3h4.3Z" style="fill: #010202;"/>
    <path d="M12.2,17.5c.2,0,.4,0,.6.1.2,0,.4.2.5.4.1.2.2.3.3.6,0,.2.1.5.1.7,0,.3,0,.7-.3,1-.2.3-.4.5-.7.6l1.1,2.7h-1.6l-.9-2.5h-1.2v2.5h-1.5v-6h3.5ZM11.7,19.8c.1,0,.3,0,.4-.2,0-.1.1-.2.1-.4s0-.1,0-.2c0,0,0-.1,0-.2,0,0,0,0-.2-.1,0,0-.1,0-.2,0h-1.6v1.1h1.6Z" style="fill: #010202;"/>
    <path d="M15,23.6h-1.6l2-6h1.5l2.1,6h-1.6l-.3-1h-1.9l-.3,1ZM16.2,19.1h0l-.6,2.2h1.2l-.6-2.2Z" style="fill: #010202;"/>
    <path d="M20.6,20h0v3.6h-1.5v-6h1.6l2,3.4h0v-3.4h1.5v6h-1.5l-2.1-3.6Z" style="fill: #010202;"/>
    <path d="M26.7,23.7c-.3,0-.7,0-1-.1-.3,0-.5-.2-.7-.3-.2-.2-.3-.3-.5-.5-.1-.2-.2-.5-.3-.7l1.4-.6c0,.3.1.6.3.8.2.2.5.3.8.3,0,0,.2,0,.2,0s.2,0,.2,0c0,0,.1,0,.2-.2s0-.2,0-.2,0-.2,0-.2c0,0,0-.2-.1-.2,0,0-.2-.1-.3-.2-.2,0-.3-.1-.5-.2-.3,0-.6-.2-.9-.3-.2-.1-.5-.2-.7-.4-.2-.2-.3-.3-.4-.5,0-.2-.1-.5-.1-.7s0-.5.2-.8c.1-.2.3-.4.5-.6.2-.2.5-.3.7-.3.3,0,.6-.1.9-.1s.6,0,.8,0c.2,0,.4.2.6.3.2.1.3.3.4.4.1.2.2.4.3.6l-1.3.6c0-.2-.2-.4-.3-.6-.3-.2-.8-.2-1.2,0-.1,0-.2.2-.2.3,0,0,0,.2,0,.2s0,.1.2.2c0,0,.2.1.3.2.2,0,.3.1.5.2.3,0,.6.2.8.2.2,0,.5.2.7.3.2.2.3.3.4.5.1.3.2.6.2.9,0,.3,0,.6-.2.8-.1.2-.3.4-.5.6-.2.2-.5.3-.8.4-.3.1-.7.2-1,.1Z" style="fill: #010202;"/>
    <path d="M30.8,19.8h2.3v1.3h-2.3v2.5h-1.5v-6h4.5v1.3h-3v.9h0Z" style="fill: #010202;"/>
    <path d="M33.9,17.5h4.5v1.3h-3v.8h2.6v1.3h-2.6v1.2h3.1v1.3h-4.6v-6.1h0Z" style="fill: #010202;"/>
    <path d="M42,17.5c.2,0,.4,0,.6.1.2,0,.4.2.5.4.1.2.2.3.3.6,0,.2.1.5.1.7,0,.3,0,.7-.3,1-.2.3-.4.5-.7.6l1.1,2.7h-1.6l-.9-2.5h-1.2v2.5h-1.5v-6h3.5ZM41.6,19.8c.1,0,.3,0,.4-.2,0-.1.1-.2.1-.4s0-.1,0-.2,0-.1,0-.2c0,0,0,0-.2-.1,0,0-.1,0-.2,0h-1.6v1.1h1.6Z" style="fill: #010202;"/>
    <rect x="4.3" y="8.3" width="8.1" height="1.6" style="fill: #010202;"/>
    <rect x="4.3" y="11.4" width="8.1" height="1.6" style="fill: #010202;"/>
    <rect x="4.3" y="14.7" width="8.1" height="1.6" style="fill: #010202;"/>
  </g>
</svg>