<svg width="24" height="24" viewBox="0 0 24 24" fill="none" xmlns="http://www.w3.org/2000/svg">
<path d="M20.75 12.0005C20.75 11.6269 20.5844 11.2803 20.4275 11.0201C20.2582 10.7393 20.0306 10.4494 19.7808 10.1667C19.2798 9.59962 18.6262 8.99064 17.9918 8.43977C17.3537 7.88567 16.7178 7.37546 16.2428 7.00468C16.0049 6.81899 15.8064 6.66755 15.667 6.56224C15.5973 6.50957 15.5423 6.4684 15.5044 6.4402L15.4609 6.40782L15.4493 6.39926L15.4453 6.3963C15.1118 6.15064 14.6419 6.22153 14.3962 6.55503C14.1505 6.88852 14.2217 7.358 14.5552 7.60367L14.5679 7.61308L14.608 7.64285C14.6434 7.66925 14.6958 7.7085 14.7628 7.75911C14.8968 7.86036 15.089 8.00695 15.3198 8.18713C15.7823 8.5481 16.3964 9.04099 17.0083 9.57235C17.6239 10.1069 18.2202 10.6658 18.6567 11.1598C18.6843 11.1911 18.711 11.2218 18.7369 11.252L4 11.252C3.58579 11.252 3.25 11.5877 3.25 12.002C3.25 12.4162 3.58579 12.752 4 12.752L18.7343 12.752C18.7093 12.7812 18.6834 12.8109 18.6567 12.8411C18.2202 13.3352 17.6239 13.894 17.0083 14.4286C16.3964 14.96 15.7823 15.4528 15.3198 15.8138C15.089 15.994 14.8968 16.1406 14.7628 16.2418C14.6958 16.2925 14.6434 16.3317 14.608 16.3581L14.5679 16.3879L14.5552 16.3973C14.2217 16.6429 14.1505 17.1124 14.3962 17.4459C14.6419 17.7794 15.1118 17.8503 15.4453 17.6046L15.4493 17.6017L15.4609 17.5931L15.5044 17.5607C15.5423 17.5326 15.5973 17.4914 15.667 17.4387C15.8064 17.3334 16.0049 17.182 16.2428 16.9963C16.7178 16.6255 17.3537 16.1153 17.9918 15.5612C18.6262 15.0103 19.2798 14.4013 19.7808 13.8343C20.0306 13.5516 20.2582 13.2616 20.4275 12.9808C20.5834 12.7222 20.748 12.3782 20.75 12.0072" fill="#141B34"/>
</svg>
