<svg width="24" height="24" viewBox="0 0 24 24" fill="none" xmlns="http://www.w3.org/2000/svg">
<path fill-rule="evenodd" clip-rule="evenodd" d="M3.361 20.6399C4.971 22.2499 7.32 22.25 12 22.25C16.68 22.25 19.028 22.2499 20.639 20.6409C22.25 19.0309 22.25 16.681 22.25 12V12V12C22.25 7.31899 22.25 4.96996 20.639 3.35996C19.029 1.75 16.6801 1.75 12.0003 1.75H12H11.9999C7.31995 1.75 4.97098 1.75 3.361 3.35898C1.75 4.96898 1.75 7.319 1.75 12C1.75 16.681 1.75 19.0299 3.361 20.6399ZM12 3.25H12H12C16.266 3.25 18.408 3.25 19.579 4.421C20.75 5.59099 20.75 7.73299 20.75 12V12V12C20.75 16.267 20.75 18.4089 19.579 19.5789C18.4779 20.6791 16.5214 20.7457 12.7509 20.7497L12.7958 14.7503H14.8848C15.2988 14.7503 15.6348 14.4143 15.6348 14.0003C15.6348 13.5863 15.2988 13.2503 14.8848 13.2503H12.8068L12.8318 9.91523C12.8358 9.28923 13.3518 8.78027 13.9818 8.78027H16.9258C17.3398 8.78027 17.6758 8.44427 17.6758 8.03027C17.6758 7.61627 17.3398 7.28027 16.9258 7.28027H13.9818C12.5308 7.28027 11.3418 8.4572 11.3318 9.9042L11.3068 13.2503H10.0818C9.66779 13.2503 9.33179 13.5863 9.33179 14.0003C9.33179 14.4143 9.66779 14.7503 10.0818 14.7503H11.2958L11.2508 20.7497C7.47908 20.7457 5.52135 20.6793 4.421 19.5789C3.25 18.4089 3.25 16.267 3.25 12V12V12C3.25 7.73299 3.25 5.59099 4.421 4.421C5.59299 3.25 7.73399 3.25 12 3.25Z" fill="currentColor"/>
</svg>
