<svg xmlns="http://www.w3.org/2000/svg" version="1.1" viewBox="0 0 260 260">
  <g>
    <g>
      <path d="M257.4,71.2h0c-.8-2.5-2.8-4.5-5.3-5.3l-16.3-5-9.5-2.2-3.1-4.8c-1.3-2.1-3.6-3.5-6.1-3.7l-9.8-.8h-5.9s-5.2-5.1-5.2-5.1v-5.5c0-3.1-1.7-5.9-4.6-7.3-2.8-1.4-6.1-1-8.5.9l-1.2,1c-.6-2.1-2.1-3.9-4-4.9l-10.3-5.4c-1.1-.6-2.3-.9-3.5-.9l-.2-1c-.8-3.7-4-6.3-7.9-6.3h-3l-.8-4.7c-.4-2.5-2-4.7-4.3-5.9-2.3-1.2-5-1.1-7.3,0l-17.3,9c-2.2,1.2-3.8,3.2-4.2,5.7l-3.2,17-10.2,4.6-11.8,7.3c-2.8,1.8-4.2,5.1-3.7,8.3h-.3c0,0-7.8-1.8-7.8-1.8l-.2-.9c-.6-3.9-4-6.8-8-6.8h-2l-7.2-1.9c-2.7-.7-5.5,0-7.6,1.9-2,1.9-2.9,4.7-2.4,7.4l1.6,8.4c.2.8.5,1.7.9,2.4l1.7,3v5.1c-.5.2-1,.4-1.5.6l-4.6,2.5h-1.9l-.5-.6c-.6-.7-1.3-1.3-2-1.7l-6.3-3.7c-2.3-1.4-5.2-1.5-7.6-.3l-6.2,2.9h-7.1c-.8,0-1.6.1-2.4.4l-11,3.4c-3.4,1.1-5.7,4.1-5.7,7.7v5.5c0,1.5.4,3,1.2,4.2-.4.6-.7,1.3-.9,2.1-.7,2.5-.1,5.3,1.6,7.3l3.4,4.1,2,3.8c1.9,3.5,6.1,5.1,9.9,3.8l4.1-1.5,19.1,6c.2,4,3.2,7.2,7.1,7.7v4.6c0,2,.7,3.9,2,5.3l9.2,10.4c.7.8,1.5,1.5,2.5,1.9l1.3.6c-.2.3-.4.5-.6.8-1.5,2.3-1.7,5.2-.6,7.7l4.8,10.5-5,43.4-3.5,2.3c-2.2,1.4-3.5,3.8-3.6,6.4,0,2.6,1.1,5.1,3.1,6.7l10.4,8,17.1,8.2c.8.4,1.7.7,2.7.7l19.2,2c2.5.3,4.9-.6,6.6-2.4l14.2,5.1,7.1,5.5c1.4,1.1,3.1,1.7,4.9,1.7s1.1,0,1.7-.2l15.9-3.4c2.6-.5,4.7-2.3,5.7-4.7,1-2.4.9-5.1-.5-7.4l-2.7-4.6v-1.1l10.1-7.9,4.9,4c2.2,1.8,5.3,2.4,8,1.3l4.8-1.8,16.1,7.7c2.3,1.1,4.8,1.1,7.1,0l12.3-6.2c.9-.4,1.7-1,2.3-1.7l12.8-14,6.4-9.6c1.6-2.5,1.8-5.6.4-8.3-1.4-2.6-4.1-4.2-7.1-4.2h-3.6l-1.7-1.1,1.4-5c.9-3.4-.4-6.9-3.2-8.9l.4-.2c3.4-2,4.8-6.1,3.4-9.8l-3.1-8,1.2-1.7c2.2-3,2.1-7.1-.3-9.9l-2.9-3.5-2.4-7c-.8-2.2-2.4-3.9-4.5-4.8,0-.2,0-.4,0-.6v-1.9l5-3.2c1.8-1.2,3.1-3.1,3.5-5.2,1.2-.3,2.3-.9,3.2-1.7l5.3-4.5c1.4-1.2,2.4-2.8,2.7-4.6l4.9-25.4,7-9c1.6-2.1,2.1-4.8,1.3-7.4ZM221.4,107.5h0c-2,1.3-3.4,3.5-3.6,5.9l-.4,4-5.4,3.5c-2.3,1.5-3.7,4-3.7,6.8v2.9l-3.4,3.4c-1.5,1.5-2.3,3.5-2.3,5.7v2l-2.3,3.1c-2.2,3-2.1,7,.3,9.9,2.3,2.9,6.2,3.8,9.6,2.2l6.2-2.8c.2,0,.4-.2.6-.3.2.5.6,1,.9,1.5h0c-1.6,2.3-2,5.2-1.1,7.8l2.2,5.8-1.7,1c-2.4,1.4-4,4.1-4,6.9v5.9c0,3,1.7,5.8,4.4,7.2l.9.5-1.2,4.3c-1,3.4.3,7,3.3,8.9l6,4-10.2,11-7.4,3.7-15.7-7.5c-2-.9-4.3-1-6.3-.2l-3.6,1.4-6.3-5.2c-2.9-2.4-7.2-2.5-10.1-.1l-18.3,14.4c-2,1.5-3.1,3.8-3.1,6.3v7.3c0,.3,0,.5,0,.8l-2,.4-5.3-4c-.6-.5-1.3-.9-2.1-1.1l-21.9-7.9c-.9-.3-1.8-.5-2.7-.5-2.8,0-5.4,1.5-6.8,3.8l-12.2-1.2-14.3-6.8-.7-.5c.7-1.1,1.2-2.3,1.3-3.6l5.7-49.4c.2-1.5,0-2.9-.7-4.3l-1.6-3.5c1.5-1.5,2.3-3.5,2.3-5.7v-8.3c0-3-1.8-5.9-4.5-7.2l-8.2-4.1-6.1-7v-3.7c0-1.3-.3-2.5-.9-3.7l-3-5.8c-.8-1.5-2-2.7-3.5-3.5-.6-2.8-2.6-5.2-5.5-6.1l-26.7-8.4c0-.1,0-.3.1-.4.6-2.7-.1-5.5-2-7.4l-.7-.7h6.4c1.2,0,2.4-.3,3.5-.8l3.9-1.9,1.4.9,2,2.4c1.5,1.8,3.8,2.8,6.1,2.8h7.6c1.3,0,2.6-.3,3.8-.9l3.3-1.8,6.3,2.2c3.2,1.1,6.6.2,8.8-2.4,2.2-2.6,2.5-6.1.9-9.1l-2.9-5.3v-5.7s13.4,3.2,13.4,3.2c1.5.4,3,.3,4.5-.2l10.7-3.7c2.2-.7,3.9-2.4,4.8-4.5.9-2,.9-4.3,0-6.3l4.8-3,13-5.8c2.4-1.1,4.2-3.3,4.7-5.9l3.3-17.3,4-2.1c.8,2.5,2.7,4.4,5.2,5.2l5,1.6c.3.1.7.2,1.1.3l.3,1.2c.8,3.7,4.1,6.3,7.9,6.3h4.3l5.3,2.8,1.1,4.5c.9,3.6,4.1,6.1,7.8,6.1h5.1c.3.6.8,1.1,1.2,1.6l10,9.8c1.5,1.5,3.5,2.3,5.6,2.3h8.4s5.3.4,5.3.4l2.8,4.3c1.1,1.8,2.9,3,4.9,3.5l12,2.8,4.7,1.5-1,1.3c-.8,1-1.3,2.2-1.6,3.4l-4.7,24.2-.7-.2c-2.3-.7-4.8-.4-6.9.9Z"/>
    </g>
  </g>
</svg>