<?xml version="1.0" encoding="UTF-8"?>
<svg id="Camada_1" xmlns="http://www.w3.org/2000/svg" version="1.1" xmlns:xlink="http://www.w3.org/1999/xlink" viewBox="0 0 48 32">
  <!-- Generator: Adobe Illustrator 29.5.1, SVG Export Plug-In . SVG Version: 2.1.0 Build 141)  -->
  <defs>
    <clipPath id="clippath">
      <rect width="48" height="32" style="fill: none;"/>
    </clipPath>
  </defs>
  <g style="clip-path: url(#clippath);">
    <path d="M0,4C0,1.8,1.8,0,4,0h40c2.2,0,4,1.8,4,4v24c0,2.2-1.8,4-4,4H4c-2.2,0-4-1.8-4-4V4Z" style="fill: #ffded4;"/>
  </g>
  <path d="M41.3,13.8v3.1c-1.7.9-3.4,1.3-5,1.3-4.5,0-7.3-2.7-7.3-6.1s3.1-6.7,7.1-6.7,1.7.2,2.5.4c.6.2.9.4,1.3.4s.4-.5.4-.8h.4l.4,4.2h-.5c-.2-.8-.6-1.5-1.1-2-.8-.8-1.9-1.3-3.2-1.3-2.7,0-4.3,2.2-4.3,5.4s1.9,5.4,4.5,5.4,1.5-.2,2.3-.6v-3.2c0-1-.2-1.4-1.6-1.4v-.5h5.5v.5c-1.4,0-1.3.4-1.3,1.7M26.2,8.7v9.3h-.7l-9.3-9.6c0,.3,0,.5,0,.7v5.8c0,1.8,0,2.5,1.6,2.5v.5h-4.4v-.5c1.6,0,1.6-.8,1.6-2.5v-6.7c0-1,0-2.1-1.7-2.1v-.5h4.1l7.7,7.9c0-.2,0-.3,0-.6v-4.3c0-1.7,0-2.5-1.6-2.5v-.5h4.4v.5c-1.6,0-1.7.7-1.7,2.5M5,17.9v-.5c1,0,1.8,0,1.8-1.6V7.8c0-1.6-.6-1.6-1.8-1.6v-.5h6.1v.5c-1.3,0-1.8,0-1.8,1.6v8c0,1.5.6,1.6,1.8,1.6v.5h-6.1Z" style="fill: #003671;"/>
  <path d="M21.4,22v-.2h-.3c0,0,.3.2.3.2ZM19.8,21.8c0,0-.2,0-.3,0,0,0,0,.1,0,.2.1,0,.3-.1.3-.1M21.7,20.2s0,0,0,0h-.6c0,0-.2,0-.2,0h0c0,.3,0,.5,0,.8.1,0,.3.1.3.3.1,0,.3,0,.3.2,0,0,.1-.1.1-.2-.1-.1-.4,0-.4-.3h-.2c0-.3,0-.4,0-.5h0s0,0,0,0c.1,0,.3,0,.3,0,0,0,0-.2.1-.2s.1,0,.1,0M20,20.2c0,0,0-.1-.1-.1h-.7c0,0,0,.2.2.2,0,0,0,.1.1.2,0,0,.1,0,.2,0,0,0,.1,0,.1,0,0,.2,0,.3,0,.4,0,.2-.2.2-.3.3,0,0-.1.2,0,.3,0,0,.2,0,.3-.1,0,0,.1-.2.2-.3,0-.3,0-.5,0-.8M20.3,19.6c0,0-.3,0-.3,0-.1,0-.2.1-.2.2h.3c0,0,.1-.2.2-.3M21.3,19.9c0,0,0,0,0-.1-.1,0-.1-.2-.3-.2,0,0-.1,0-.2,0,0,0,0,0,0,0,.2,0,0,.2.2.3h.3ZM22.2,19.7c0-.2,0-.4,0-.6,0,0-.2-.2-.4-.3h-.2c-.1.2-.2.3-.2.4.2,0,.4.3.5.5h0c0,0,.2,0,.2,0M19.6,19.3c0-.3-.4-.3-.5-.4h0c-.3,0-.3.3-.3.5,0,.3.3,0,.4.3.1,0,.4-.3.6-.3M16.2,27.8s-.1,0-.2,0c0,.2,0,.3,0,.5s0,.2,0,.2c0,0-.2-.1-.2-.2v-.5l.3-.3c.2.1.2.3.2.4M17,27.5c0,.1,0,.3-.1.3,0-.1-.1-.3-.3-.3-.1.2-.1.3,0,.7,0,0-.2,0-.3.2,0-.1,0-.3,0-.4,0-.2,0-.4.1-.6,0-.1.1-.3.2-.3h.3c-.1,0-.1.1-.1.2,0,0,.2,0,.2.2M18,27.7c0,.3-.4.6-.4.6,0-.2,0-.3,0-.5,0,0-.1-.1-.3-.1,0,0,0,.1-.1.2,0,.2-.3.3-.3.5,0,0,0,0,0,0,0-.3,0-.8.2-1,.2-.2.3-.2.4-.2h.2s-.1.2-.1.2c.1,0,.3.2.3.3M22.7,27.7h0c0,0,0-.3-.2-.3-.1,0-.3-.1-.3-.2h0c0,0,0,0,.1,0,0,0,.1,0,.1.2,0,0,.1,0,.2,0,0,0,0,.2,0,.3M23.7,27.3c0,0,0,.2,0,.3,0-.2-.1-.4-.3-.4,0-.1,0-.2-.2-.3h-.3c0,0,.2,0,.1.3,0,0,.2,0,.3.2,0,0,0,.2,0,.3h-.2c0,0,0-.3-.2-.4-.2,0-.2-.2-.3-.3,0,0,0-.2-.1,0-.1,0-.3,0-.5,0v-.3c.3,0,.4,0,.5,0h.2c.3,0,.4,0,.7.2.1,0,.2.2.2.3,0,0,.2,0,.2.1M28.3,27.3c0,0,0,.1-.1.2,0-.1-.2-.2-.3-.5v-.2c.2,0,.3.1.3.3s0,.1,0,.2c0,0,0,0,0,0M18.8,27.4v.3c0,0-.3-.5-.3-.5-.3-.3-.5-.3-.7-.4,0,0,0,0-.2,0,0,0,0-.2.1-.3h.3c.1.2.3.2.3.3s0,0,0,.2h.3c0,.1,0,.3,0,.3ZM27.4,27.1s0,0,0,0c-.1,0-.3-.1-.4-.1,0,0,0-.2-.1-.2-.2,0-.2,0-.3,0l.3-.3c0,0,0,0,.1,0,0,0,.1,0,.2,0,0,0,0,0,0,.2,0,0,.1,0,.2,0,0,0,.2,0,.2.2M24.1,27.2h0c0,0,0-.2-.1-.2,0-.3,0-.6-.1-.9h0c.1,0,.3.2.3.4,0,.3,0,.5,0,.7M19.3,27l-.2.2c0,0,0-.3-.1-.3,0,0,0,0,0-.1,0,0-.4-.2-.4-.2-.1,0-.3-.2-.4-.3-.1,0-.2,0-.4,0,0,0,0,0,0,0,0,0,0-.3.3-.3s.2,0,.3,0c.1,0,.2.1.3.1.1.2.3.2.4.3,0,0,0,.1,0,.2.2,0,.1.2.2.3M28.5,26.5c0,.2,0,.2,0,.4l-.2-.3c0,0,0-.2.2-.3,0,0,.1.2.1.2M23.5,26.7c-.1,0-.3,0-.4-.2,0,0-.2,0-.3,0-.1,0-.3,0-.4,0s0,0,0,0c-.2,0-.4,0-.5.3v-.3c.3,0,.3,0,.4,0,0,0,.2,0,.3,0h0c.3,0,.7,0,1,.3v.2ZM27.7,26.5c0,.1,0,.1,0,.3-.2,0-.2-.3-.3-.3-.1-.2-.3,0-.5,0,0-.2,0-.2,0-.3,0,0,.2,0,.3,0,.1,0,.2,0,.4,0,0,0,.1.2.1.3M19.4,26c0,0,0,.4,0,.4,0-.2-.2-.4-.4-.4-.1,0-.2-.2-.2-.3,0,0-.2,0-.3,0-.1,0-.3,0-.4,0h0c0,0,.2-.3.2-.3.2,0,.5,0,.6.2.1,0,.3.1.3.2h0c0,.1.2.1.2.2M20.6,26c-.1,0-.2,0-.3,0l-.2-.3c.1,0,.3,0,.4,0v.2ZM25.5,26.1c0,.1-.2.3-.3.4,0-.2,0-.4,0-.4,0,0-.2,0-.2,0s0-.2,0-.3,0-.1,0-.2c0-.2.2-.2.3-.3,0,.1,0,.3,0,.4,0,0,0,.3,0,.4,0,0,.2,0,.2.1M23.4,26.1c-.1,0-.3,0-.3-.1,0,0,0,0-.1,0-.1.1-.3,0-.4,0,0,0-.2.1-.3.2h0c0-.1,0-.2.2-.3.2,0,.3-.3.5,0,0,0,.2,0,.2,0,.2,0,.3.3.3.4M21.4,26h0c0,0-.3,0-.3-.2,0,0,0-.1,0-.1,0,0,.1,0,.2,0v.3ZM27.8,26.1c-.2,0,0-.4-.5-.4s-.2.1-.3.2c0,0,0-.2,0-.2,0,0,0-.2.1-.3.2,0,.2,0,.3.1.1,0,.2.1.3.1v.4ZM24.8,25.8c0,.2,0,.3-.1.5,0-.2,0-.3-.2-.4,0,0,0,0,0-.1,0,0-.2,0-.2-.2s.1-.2.2-.3c0,0,.1,0,.1.2s0,.1,0,.2c0,0,.2,0,.2.2M26.2,25.3c0,.1,0,.2,0,.3,0-.2-.2-.3-.3-.5,0,0,0,0,0,0h0c0,0,.1,0,.1,0,0,0,.1.1.1.2M27.9,25.5c0,0-.3,0-.3-.1s0-.1-.2-.1-.2,0-.4,0c0,0,0-.1-.1-.2,0,0,.3-.1.4-.1.2,0,.4,0,.4.1s.2.1.2.4M20.6,24.9c0,.2-.1.2-.3.4-.1,0-.3,0-.4.2,0,0,.1-.1.2-.2,0,0,.2-.2.2-.3.1,0,.2,0,.3,0M25.8,25.3c0,.2,0,.4,0,.6,0,0,0,0,0-.2,0-.2,0-.3-.1-.5,0-.3-.2-.4-.3-.7,0-.1-.2-.2-.3-.3.1,0,.3,0,.4.1,0,0,0,.1.1.2.2,0,.2.3.3.4,0,0,0,0,0,0,0,0,0,.1,0,.1,0,0,.2,0,.2.2M20,24.6c0,.2-.2.3-.3.4-.1,0-.3,0-.4,0,0,0,.2-.1.3-.2l.3-.3h.2ZM21.7,25.1c0,0-.3,0-.3,0-.2-.1-.2-.3-.4-.4,0,0,0,0,0-.1h.5c0,.2,0,.2,0,.2,0,0,.2.2.3.3M25,25.1c0,0,0,0-.1,0,0,0-.1-.1-.2-.3,0-.1,0-.3,0-.3,0,0,0,0,.1,0,0,0,0,.1,0,.2,0,0,.1.2,0,.3M19.3,24.6v.4c-.3.1-.5,0-.6,0,.3,0,.4-.3.5-.5,0,0,0,0,.1,0M22.7,24.9h0c-.3,0-.6-.1-.8-.3.2,0,.3,0,.4,0h0v.2c.2,0,.3.1.4.2M28.1,24.9c-.2,0-.4,0-.4-.2,0,0,0-.2-.1-.2s-.1,0-.1,0c0,0-.3,0-.3,0,0,.1-.1.2-.3.2s-.1,0-.2,0v-.3c.4,0,.4-.1.5-.1s.2,0,.3,0,0,0,.2,0,.2.1.3.1c0,0,0,.2,0,.3M18.9,24.2c0,.1,0,.3-.2.4,0,0-.1,0-.1,0,0-.2,0-.3,0-.5,0,0,.2,0,.3,0M23.2,24.6c-.1,0-.3,0-.4,0-.2-.1-.2-.2-.3-.3.1,0,.3,0,.3-.1,0,.1.2.3.4.4M24.6,24.4c0,0,0,.1-.1.2,0,0-.1-.1-.1-.2s0-.2,0-.3c0,0,.2.2.2.3M25.9,24.5c-.3-.2-.4-.4-.6-.7.2,0,.3.2.5.3,0,0,.1,0,.2.2v.3ZM20.7,23.8c0,.2,0,.4-.2.5v-.3c0,0,.1-.1.2-.3M20.1,24.2c-.2-.2-.3-.3-.3-.5,0,0,.2,0,.3,0,0,.1,0,.3,0,.4M28.1,24.2c-.3-.1-.6-.2-.8-.2s-.4.1-.6.3v-.3c.1,0,.1-.2.3-.2s.2,0,.3,0,.1,0,.2,0c.1,0,0,.2.2.2s.1,0,.2,0c.1,0,.3.2.3.4M21.4,24.2c-.1,0-.4-.1-.4-.3,0-.1.2-.2.2-.3,0,.2,0,.4.1.5M23.9,24h-.1c-.3,0-.5,0-.6-.2.1,0,.3-.1.3-.1.1.1.3.3.5.3M18.5,23.8c-.1.1-.3.2-.3.4,0,0,0-.2,0-.3,0,0,.1-.2.2-.2,0,0,.1,0,.2,0M22.1,24.1c-.1,0-.3,0-.4,0-.2-.3,0-.5,0-.7,0,.2,0,.3.1.5,0,.1.2.2.3.3M24.3,23.6c-.1,0-.3,0-.5,0h.2c0,0,.2,0,.3,0M27.4,23.5c-.2,0-.2,0-.4,0s-.3,0-.4.2c0,0,0-.2,0-.3,0,0,.2-.2.4-.2s.4.2.4.3M19.2,23.9c-.2,0-.4-.2-.5-.4,0-.1,0-.3,0-.4.1,0,.2.1.3.2h0c.1.2.3.4.3.6M19.5,23.4v.4c-.2-.2-.3-.3-.3-.6l.3.2ZM22.4,23.7c-.2,0-.3,0-.4-.2,0-.2,0-.3-.1-.4.1.1.4.1.3.4,0,0,.1.2.2.3M23.1,23.4c-.2,0-.4,0-.4,0,0,0,.1-.1.2-.2l.3.3ZM27.4,23.1c-.2,0-.3-.1-.5-.1s-.3,0-.4.1c0,0,0-.3.2-.4.1,0,.2,0,.3,0,0,.2.2,0,.3.1,0,0,.1.2.1.3M23.6,23c0,0-.1,0-.2,0h-.3c0,0,0-.1,0-.2.1,0,.2,0,.3,0,0,0,.1.2.2.2M21.2,22.5c0,.2,0,.4-.3.5,0,0,0-.2-.1-.3,0,0,0,0,0,0,0,0,0,.2,0,.3,0,0-.2,0-.3,0h0c0-.2,0-.3,0-.3h0c0,0,0,0,0,.1,0,0-.1.1-.1.2,0,0-.2,0-.3,0v-.3q0,0,0,0v.2c-.3-.1-.3-.3-.3-.5.5-.3,1-.2,1.4,0,0,0,.1,0,.2,0M23.4,22.3c-.2,0-.3,0-.3-.3,0,0,0-.2,0-.3,0,0,0,.2.1.2.1,0,.1,0,.1.1,0,0,0,.2,0,.3M22.8,20.9s0,.3,0,.3h-.2c0,0,.1-.6.1-.6,0,.1.1.2.1.3M18.3,20.4v.2c0,.3-.2.5-.2.8v-.4c-.1-.1,0-.3,0-.4h.2ZM22.7,22.2c-.3-.2-.7-.3-1.1-.4,0,0,0,.2,0,.2.3.2.7.3,1,.6v.3c-.3-.3-.6-.6-1-.7,0,0-.1.1-.2.2-.2-.1-.4-.3-.7-.3,0,0-.1-.1-.1-.2h0c.1-.2.3-.3.3-.4,0,0,0,0,.1,0,0,0,0,0,0-.2,0-.2-.4-.2-.5-.2s-.3,0-.5,0c0,0,0,0,0,.1s0,0,0,0c0,0,.1,0,.2,0,0,.2,0,.3.2.3v.3c-.1,0-.3,0-.4,0-.2,0-.3.2-.5.3,0,0-.1-.2-.2-.3-.3,0-.4.3-.7.4,0,0-.2.2-.2.2,0,0,0-.1,0-.2.3-.3.6-.3.9-.5v-.2c-.1,0-.2,0-.4,0-.3,0-.5.2-.7.3,0,0,0-.2,0-.2.3-.2.7-.3,1.1-.3h0c0-.2,0-.3,0-.3-.2-.2-.3-.4-.3-.6h0c0-.2,0-.6,0-.8-.2,0-.3-.2-.4-.3,0-.1-.1-.2-.1-.4,0-.2.1-.3.2-.4,0,0,.1,0,.2,0,.1,0,.3-.2.4,0,.1,0,.2,0,.3,0,0,0,0,0,0,.1.2,0,.2.2.3.3,0,0,.2,0,.3,0,.2,0,.3,0,.4.1.2-.1.5-.2.7-.1,0-.1,0-.2.1-.3,0,0,0,0,0,0,.1,0,.3-.2.5-.2.1,0,.3,0,.4.2.1,0,.2.3.3.4,0,.2,0,.4-.2.5l-.2.2c0,0,0,0-.2,0,0,.2,0,.5,0,.7,0,0,.1,0,.2-.1,0,0,0,0,0,.1,0,0,0,0,0,0,0,.2,0,.3-.2.4,0,.2-.2.4-.4.4h0c.4,0,.8.2,1.2.4v.2ZM29,20.4c0,0-.2-.2-.3-.2,0-.1-.2-.3-.3-.3,0,0,.2,0,.3,0,0,.1.2.3.2.3v.2ZM18.3,20h-.2c0,0,0,0,0,0,0,0,0-.2.2-.3v.3ZM28.1,19.7c-.1,0-.2,0-.3,0,0,0-.1,0-.2,0,0,0-.1,0-.2,0,.2,0,.3-.1.4-.2.1,0,.2.1.3.2M21.9,27.8c0-.1,0-.2-.2-.2s-.2.1-.2.2c0,.1,0,.8,0,.8h.2c0-.3.3-.6.3-.8M21.3,27.8h0l-.2-.2h0c0,0,0,.1-.1.2,0,.3,0,.5.1.8h.3c0-.3,0-.5,0-.8M25.8,27.5h-.3c0,.1,0,.2,0,.3,0,0,0,.2,0,.2,0,0,0-.1-.1-.2,0,0,0,.1,0,.2,0,.3.1.5.2.6h.3c0-.3,0-.4,0-.7s0-.3.1-.4M32.1,24.8c0-1.2-.4-2.4-1.5-3.5-.2-.2-.4-.4-.6-.5-.4-.3-.8-.7-1-1.1-.1-.2-.3-.3-.4-.3,0,0,0,.2.1.3h0c-.2,0-.3,0-.4-.2h.1c0-.2-.1-.2-.2-.2-.5,0-.9.2-1.4.3h0c.3.2.3.5.5.7h.2c0,0,.2,0,.2,0,0,0,0-.1,0-.2,0,0,.1,0,.2,0,.1,0,.4,0,.5.2-.2,0-.3,0-.5,0,0,0,0,.1,0,.2-.1,0-.3,0-.4-.1h0c.2.3.4.4.7.5.4,0,.7-.1,1.1,0,.4.2.8.4,1,.7.9,1,1.3,2,1.3,2.9s-.3,2-.8,2.5c-.3.3-.7.6-1.2.6s-.3,0-.5-.1c0-.3.1-.7.1-1.2s0-1.1-.4-2.1c0-.2-.4-.8-.8-1.2-.3-.3-.7-.6-1-.6s-.3,0-.5.1c-.1.1-.2.4-.2.5-.3.1-.6.3-.9.3s-.8-.2-1.1-.4v-.4c-.2,0-.3-.2-.3-.3h0c0,0,.1,0,.2,0,0-.2,0-.4-.2-.6,0,0-.2,0-.3,0-.1,0-.2-.2-.2-.3,0,.1.2,0,.3.2-.1-.3,0-.5-.3-1,0-.3-.3-.4-.5-.6,0,0-.1-.2-.3-.2,0,0,0-.2-.1-.3,0,0,.1,0,.2,0-.1-.4-.3-.8-.7-1.1h0c-.2,0-.3,0-.5,0,0,0,.2-.1.3-.2-.1,0-.2-.1-.4-.1,0,0-.2.1-.3.1h0c0,0,0-.2.1-.3-.2,0-.3,0-.5,0,0,.1-.1.2-.1.3,0,0-.1.2-.2.3,0-.2,0-.4.1-.5-.1,0-.3.1-.3.1-.2-.1-.5-.3-.6-.3.2.1,0,.3.1.5h-.1c0-.2-.2-.3-.2-.4-.2,0-.3,0-.4.1h0c.1,0,.2.1.3.2-.2,0-.3,0-.5,0,0,0,0,0,0,0,0,0-.2.1-.2.2-.2.2-.3.3-.4.6,0,0,.1,0,.2,0,0,0-.2.2-.3.2v.4c0,.1-.2.2-.3.3-.1.5-.2,1-.2,1.6,0,0-.1.1-.2.1v.5s.2-.2.3-.3c0,.1,0,.3,0,.4,0,0-.2.1-.2.2s0,.2,0,.3,0,0,0,.1c0,0,0-.1.1-.2,0,0,0,0,.2,0,0,0,0,.2-.1.3h0c0,0,0,.1,0,.2,0,.6.3,1.1.5,1.7-.2.4-.4.8-.5,1.1,0,.2-.2.7-.2.7-.1-.1-.3-.2-.5-.2-.2,0-.4,0-.5.3-.2,0-.4,0-.5,0-.3.2-.3.3-.3.5,0,0-.2.2-.2.4,0,.3,0,.4.2.7h4.4c0,0-.1-.2-.2-.3,0-.2,0-.4,0-.6,0-.2.2-.3.3-.5,0,0,0,0,0-.1h.2c.1,0,.2-.1.3-.1.1.1.1-.1.3-.2.3,0,.6,0,.8.3,0,0,0,0,0,0h-.1c-.2,0-.4-.2-.6,0,0,0,0,0,0,.2h0c.1.2.2.3.3.3,0-.1.2-.2.4-.2s.4,0,.4.3,0,.2,0,.3c.1,0,.3.1.4.2,0,0-.1,0-.2,0h-.3s0,0,0,0c0,0-.1.2-.2.3h3.4c0-.1-.1-.2-.1-.3,0-.2,0-.4,0-.6l.3-.4c.2,0,.3,0,.6,0,0,0,0-.1.3-.2.2,0,.4,0,.4.1q0,0,0,.1c0,0-.2,0-.3,0,0,0,0,0,0,.1,0,0-.3,0-.3,0,0,0,0,.2-.1.3,0,0,.1,0,.2.2,0,0,0,.2,0,.3,0,0-.2-.1-.2,0,0,.2,0,.4,0,.7h.3v-.5c0-.3.4-.8.6-.8s.2,0,.3.1c0,0,.2.2.2.2s0,0-.2,0,0,0-.1-.1l-.2.2s.2.2.2.3,0,.2-.1.3l-.2-.3c0,0-.2.2-.2.3s0,.2,0,.3h1.8c.2,0,.4,0,.6-.2h.4c.5,0,1.1,0,1.8-.7,1.1-1,1.1-2.4,1.1-2.9M20.8,28.6c-.1-.3-.2-.7-.2-.8,0-.2,0-.4,0-.5h-.3c0,.2,0,.3,0,.3h.1c0,0,0,0,.1,0,0,.2-.2.2-.3.2,0,.3.2.4.2.7h.3Z" style="fill: #eb6606;"/>
</svg>