<?xml version="1.0" encoding="UTF-8"?>
<svg id="Camada_1" xmlns="http://www.w3.org/2000/svg" version="1.1" xmlns:xlink="http://www.w3.org/1999/xlink" viewBox="0 0 48 32">
  <!-- Generator: Adobe Illustrator 29.7.1, SVG Export Plug-In . SVG Version: 2.1.1 Build 8)  -->
  <defs>
    <clipPath id="clippath">
      <rect width="48" height="32" style="fill: none;"/>
    </clipPath>
    <linearGradient id="Gradiente_sem_nome_2" data-name="Gradiente sem nome 2" x1="-221.6" y1="261.4" x2="-222.2" y2="261.4" gradientTransform="translate(5866.3 5767) scale(26.4 -22)" gradientUnits="userSpaceOnUse">
      <stop offset="0" stop-color="#1e64ff"/>
      <stop offset="1" stop-color="#1e64ff" stop-opacity="0"/>
    </linearGradient>
  </defs>
  <g style="clip-path: url(#clippath);">
    <path d="M0,4C0,1.8,1.8,0,4,0h40c2.2,0,4,1.8,4,4v24c0,2.2-1.8,4-4,4H4c-2.2,0-4-1.8-4-4V4Z" style="fill: #dffaff;"/>
  </g>
  <g id="iyzico-logo-subbrands-pwi-v2">
    <g id="Group_4">
      <g id="Group_3">
        <g id="Group_1">
          <path id="Path_1" d="M28.4,10.6c.2-.3.5-.4.8-.3s.4.5.3.8h0l-2.7,5.3c0,.2-.3.3-.5.3-.1,0-.2,0-.3,0-.3-.2-.4-.5-.3-.8,0,0,0,0,0,0l.8-1.5-1.7-3.2c-.2-.3,0-.7.3-.8s.7,0,.8.3h0l1.3,2.5,1.3-2.5ZM39.4,10.2c.6,0,1.3.3,1.7.7.2.2.3.6,0,.8-.2.2-.6.3-.8,0,0,0,0,0,0,0-.5-.5-1.3-.5-1.7,0-.5.5-.5,1.3,0,1.7.5.5,1.3.5,1.7,0,0,0,0,0,0,0,.2-.2.6-.2.8,0,.2.2.2.6,0,.8-.9.9-2.5,1-3.4,0-.9-.9-1-2.5,0-3.4.5-.5,1.1-.7,1.7-.7ZM44.2,10.2c1.3,0,2.4,1.1,2.4,2.4,0,1.3-1.1,2.4-2.4,2.4-1.3,0-2.4-1.1-2.4-2.4,0-1.3,1.1-2.4,2.4-2.4ZM23.3,10.3c.3,0,.6.3.6.6v3.5c0,.3-.3.6-.6.6s-.6-.3-.6-.6h0v-3.5c0-.3.3-.6.6-.6h0ZM33.3,10.3h.2c.3,0,.6.2.6.6,0,.1,0,.3-.1.4l-2.1,2.5h1.7c.3,0,.6.3.6.6s-.3.6-.6.6h-2.9c-.3,0-.6-.3-.6-.6,0-.1,0-.3.1-.4l2.1-2.5h-1.4c-.3,0-.6-.3-.6-.6s.3-.6.6-.6h2.5,0ZM35.5,10.3c.3,0,.6.3.6.6h0v3.5c0,.3-.3.6-.6.6-.3,0-.6-.3-.6-.6v-3.5c0-.3.3-.6.6-.6h0ZM44.2,11.4c-.7,0-1.2.6-1.2,1.2s.6,1.2,1.2,1.2c.7,0,1.2-.5,1.2-1.2,0-.7-.6-1.2-1.2-1.2ZM23.3,8.4c.4,0,.7.3.7.7,0,.4-.3.7-.7.7-.4,0-.7-.3-.7-.7,0-.4.3-.7.7-.7ZM35.5,8.4c.4,0,.7.3.7.7,0,.4-.3.7-.7.7-.4,0-.7-.3-.7-.7,0-.4.3-.7.7-.7Z" style="fill: #1e64ff; fill-rule: evenodd;"/>
        </g>
        <path id="Path_2" d="M31.9,18.6c1.2,0,2.2.9,2.2,2,0,1.2-.9,2.2-2,2.2-1.2,0-2.2-.9-2.2-2,0,0,0,0,0,0,0-1.1.9-2.1,2-2.1ZM37.1,18.6c.2,0,.3.1.3.3v3.6c0,.2-.1.3-.3.3-.2,0-.3-.1-.3-.3v-.3c-.1.4-.5.7-1,.6-.9,0-1.5-.9-1.4-1.7,0-.8.7-1.4,1.4-1.4.4,0,.8.2,1,.6v-.2s0,0,0,0v-1.1c0-.2.1-.3.3-.3h0ZM22.9,19.7c.1,0,.2.1.2.2v2.6c0,.1-.1.2-.2.2s-.2-.1-.2-.2v-2.6c0-.1.1-.2.2-.2ZM24.1,18.6c.1,0,.2.1.2.2v3.8c0,.1-.1.2-.2.2s-.2-.1-.2-.2v-3.8c0-.1.1-.2.2-.2ZM26.4,19.7c.8,0,1.5.7,1.5,1.5,0,.2-.1.3-.3.3h-2.2c0,.6.5,1,1.1,1,.2,0,.5,0,.7-.2,0,0,.1,0,.2,0,0,0,.2,0,.2.2,0,0,0,0,0,0,0,0,0,.2-.1.2-.3.2-.6.3-1,.3-.8,0-1.5-.6-1.6-1.4,0,0,0,0,0-.1,0-.8.6-1.5,1.5-1.6,0,0,0,0,0,0h0ZM39.5,19.7c.8,0,1.5.7,1.5,1.5,0,.2-.1.3-.4.3h-2c0,.5.5.9,1,.8.2,0,.4,0,.6-.2,0,0,.2,0,.2,0,.1,0,.2,0,.2.2,0,0,0,0,0,0,0,.1,0,.2-.2.3-.3.2-.6.3-.9.3-.8,0-1.5-.6-1.6-1.4,0,0,0,0,0-.1,0-.8.6-1.6,1.5-1.6,0,0,0,0,0,0h0ZM35.9,20.2c-.6,0-1,.6-.9,1.2,0,.5.4.8.9.9.5,0,.9-.5.9-1,0,0,0,0,0,0,0-.5-.3-1-.8-1,0,0,0,0,0,0h0ZM31.9,19.2c-.8,0-1.6.5-1.7,1.4s.5,1.6,1.4,1.7c.8,0,1.6-.5,1.7-1.4,0,0,0,0,0-.1,0-.8-.6-1.5-1.4-1.5,0,0,0,0,0,0h0ZM26.4,20.1c-.5,0-1,.4-1,1h2c0-.5-.5-1-1-1ZM39.5,20.2c-.5,0-.9.3-.9.8h1.8c0-.5-.4-.8-.9-.8h0ZM22.9,18.5c.1,0,.2.1.2.3s-.1.2-.3.2c-.1,0-.2-.1-.2-.2,0-.1.1-.2.3-.2h0ZM32.7,17.5c.2,0,.3.2.3.3s-.2.3-.3.3c-.2,0-.3-.2-.3-.3,0-.2.2-.3.3-.3ZM31.2,17.5c.2,0,.3.2.3.3s-.2.3-.3.3c-.2,0-.3-.2-.3-.3,0-.2.2-.3.3-.3Z" style="fill: #495057; fill-rule: evenodd;"/>
        <g id="Group_2">
          <path id="Path_3" d="M3.3,8.4c-1,0-1.9.9-1.9,1.9h0v11.4c0,1,.8,1.9,1.9,1.9h11.5c.7,0,1.3-.4,1.7-1l2.9-5.7c.1-.3.2-.6.2-.9h0c0-.3,0-.6-.2-.9l-2.9-5.7c-.3-.6-1-1-1.7-1H3.3Z" style="fill: url(#Gradiente_sem_nome_2); fill-rule: evenodd;"/>
        </g>
      </g>
    </g>
  </g>
</svg>