<?xml version="1.0" encoding="UTF-8"?>
<svg id="Camada_1" xmlns="http://www.w3.org/2000/svg" version="1.1" xmlns:xlink="http://www.w3.org/1999/xlink" viewBox="0 0 48 32">
  <!-- Generator: Adobe Illustrator 29.5.1, SVG Export Plug-In . SVG Version: 2.1.0 Build 141)  -->
  <defs>
    <clipPath id="clippath">
      <rect width="48" height="32" style="fill: none;"/>
    </clipPath>
  </defs>
  <g style="clip-path: url(#clippath);">
    <path d="M0,4C0,1.8,1.8,0,4,0h40c2.2,0,4,1.8,4,4v24c0,2.2-1.8,4-4,4H4c-2.2,0-4-1.8-4-4V4Z" style="fill: #dffaff;"/>
  </g>
  <g>
    <path d="M28.3,21.2h-8.6V5.8h8.6v15.4Z" style="fill: #7375cf;"/>
    <path d="M20.3,13.5c0-3.1,1.5-5.9,3.7-7.7-1.7-1.3-3.8-2.1-6.1-2.1-5.4,0-9.8,4.4-9.8,9.8s4.4,9.8,9.8,9.8,4.4-.8,6.1-2.1c-2.3-1.8-3.7-4.6-3.7-7.7" style="fill: #eb001b;"/>
    <path d="M39.9,13.5c0,5.4-4.4,9.8-9.8,9.8s-4.4-.8-6.1-2.1c2.3-1.8,3.7-4.6,3.7-7.7s-1.5-5.9-3.7-7.7c1.7-1.3,3.8-2.1,6.1-2.1,5.4,0,9.8,4.4,9.8,9.8" style="fill: #00a2e5;"/>
    <path d="M31.2,25.6c.1,0,.3,0,.4,0l-.2.5c-.1,0-.2,0-.3,0-.4,0-.6.2-.6.7v1.5h-.6v-2.6h.6v.3c.2-.2.4-.4.7-.4M29.1,26.1h-.9v1.2c0,.3,0,.4.4.4s.3,0,.5-.1l.2.5c-.2.1-.5.2-.7.2-.7,0-.9-.4-.9-1v-1.2h-.5v-.5h.5v-.8h.6v.8h.9v.5h0ZM21.8,26.7c0-.4.3-.6.7-.6s.6.2.7.6h-1.4ZM23.8,26.9c0-.8-.5-1.4-1.2-1.4s-1.3.6-1.3,1.4.6,1.4,1.3,1.4.7,0,1.1-.4l-.3-.4c-.2.2-.5.3-.8.3s-.7-.2-.8-.6h1.9c0,0,0-.1,0-.2M26.3,26.3c-.2,0-.5-.2-.8-.2s-.5.1-.5.3.2.2.4.3h.3c.6.1.9.3.9.8s-.4.9-1.2.9-.8-.1-1.1-.3l.3-.4c.2.1.5.3.9.3s.6-.1.6-.3-.1-.2-.5-.3h-.3c-.6-.1-.9-.4-.9-.8s.4-.8,1.1-.8.8,0,1.1.3l-.2.5ZM33.3,26.1c-.1,0-.2,0-.3,0,0,0-.2,0-.3.2s-.1.2-.2.3c0,0,0,.2,0,.3s0,.2,0,.3c0,0,0,.2.2.3s.2.1.3.2.2,0,.3,0,.2,0,.3,0c0,0,.2,0,.3-.2,0,0,.1-.2.2-.3,0,0,0-.2,0-.3s0-.2,0-.3c0,0,0-.2-.2-.3s-.2-.1-.3-.2c0,0-.2,0-.3,0M33.3,25.6c.2,0,.4,0,.6.1.2,0,.3.2.4.3s.2.3.3.4c0,.2.1.3.1.5s0,.4-.1.5c0,.2-.2.3-.3.4-.1.1-.3.2-.4.3-.2,0-.4.1-.6.1s-.4,0-.6-.1c-.2,0-.3-.2-.4-.3s-.2-.3-.3-.4c0-.2-.1-.3-.1-.5s0-.4.1-.5c0-.2.2-.3.3-.4.1-.1.3-.2.4-.3.2,0,.3-.1.6-.1M18.5,26.9c0-.5.3-.8.8-.8s.8.4.8.8-.3.8-.8.8-.8-.4-.8-.8M20.7,26.9v-1.3h-.6v.3c-.2-.2-.4-.4-.8-.4-.7,0-1.3.6-1.3,1.4s.6,1.4,1.3,1.4.6-.1.8-.4v.3h.6v-1.3ZM17.5,28.2v-1.6c0-.6-.4-1-1-1s-.7,0-.9.5c-.2-.3-.5-.5-.9-.5s-.6,0-.8.4v-.3h-.6v2.6h.6v-1.4c0-.4.3-.7.6-.7s.6.2.6.7v1.4h.6v-1.4c0-.4.3-.7.6-.7s.6.2.6.7v1.4h.6Z"/>
  </g>
</svg>