<?xml version="1.0" encoding="UTF-8"?>
<svg id="Camada_1" xmlns="http://www.w3.org/2000/svg" version="1.1" xmlns:xlink="http://www.w3.org/1999/xlink" viewBox="0 0 48 32">
  <!-- Generator: Adobe Illustrator 29.5.1, SVG Export Plug-In . SVG Version: 2.1.0 Build 141)  -->
  <defs>
    <clipPath id="clippath">
      <rect width="48" height="32" style="fill: none;"/>
    </clipPath>
  </defs>
  <g style="clip-path: url(#clippath);">
    <path d="M0,4C0,1.8,1.8,0,4,0h40c2.2,0,4,1.8,4,4v24c0,2.2-1.8,4-4,4H4c-2.2,0-4-1.8-4-4V4Z" style="fill: #edffe9;"/>
  </g>
  <g>
    <path d="M9,5.9c0,.2,0,.5,0,.8v.4h30v-1.5H9.1v.4Z" style="fill: #00703a;"/>
    <path d="M6.6,17.4v9h34.9V8.4H6.6v9h0ZM39.8,17.4v7.4H8.2v-14.9h31.7v7.4h0Z" style="fill: #00703a;"/>
    <path d="M9.4,12.7c0,.8,0,1.3,0,1.3s.7-.6,1.4-1.3l1.3-1.3h-2.7v1.3h0Z" style="fill: #00703a;"/>
    <path d="M37.1,12.7c.7.7,1.3,1.3,1.4,1.3,0,0,0-.5,0-1.3v-1.3h-2.8l1.3,1.3Z" style="fill: #00703a;"/>
    <path d="M24.4,12.1c-.8.2-1.7.6-2.2,1.2-.6.6-1.2,1.7-1.3,2.3v.4h-1.1v.8h.9v1h-.9v.8h1v.6c.5,1.6,1.5,2.9,3,3.4,1,.4,2.7.2,3.6-.3.3-.2.3-.2.2-.6,0-.2-.1-.4-.2-.5,0,0-.3,0-.6.2-.7.3-2,.3-2.7,0-.9-.4-1.5-1.2-1.7-2.1,0-.2,0-.4-.1-.5,0-.2.1-.2,2.2-.2h2.3v-.8h-4.7v-.5s0-.5,0-.5h2.3s2.3,0,2.3,0v-.7h-4.5v-.3c.3-.9,1.1-2.1,2-2.4.5-.2,1.8-.2,2.4,0,.2,0,.5.2.5.2.1,0,.3-.9.2-1-.4-.3-2.1-.6-2.9-.4Z" style="fill: #00703a;"/>
    <path d="M9.4,22.2v1.3h2.8l-1.3-1.3c-.7-.7-1.4-1.3-1.4-1.3,0,0,0,.5,0,1.2Z" style="fill: #00703a;"/>
    <path d="M37.1,22.2l-1.3,1.3h2.8v-1.3c0-.7,0-1.3,0-1.3,0,0-.7.6-1.4,1.3Z" style="fill: #00703a;"/>
  </g>
</svg>