<svg xmlns="http://www.w3.org/2000/svg" version="1.1" viewBox="0 0 160 160" fill="currentColor">
<g>
<path d="M4.1,63.5s0,0,0,0l-.2-.6.2.6Z"/>
<path d="M5.4,51.1l3.5-2.3s0,0,0,0l-3.5,2.3Z"/>
<path d="M150.1,81.4c-.2-.4-.3-.9-.3-1.4s0-1,.3-1.4l5.3-13.8.5-1.3c.5-1.4.8-2.9.8-4.4,0-4.1-2-8-5.6-10.3l-1.7-1.1-11.8-7.7c-.8-.5-1.4-1.3-1.6-2.3l-4.2-15.6c-1.5-5.4-6.3-9.1-11.9-9.1s-.4,0-.6,0l-16.1.8h0s-.2,0-.2,0c-.9,0-1.8-.3-2.5-.9l-11.8-9.5-.8-.7C85.5.9,82.7,0,80,0c-2.7,0-5.5.9-7.7,2.7h0s-11.3,9.1-11.3,9.1l-1.3,1c-.7.6-1.6.9-2.5.9h-.2s-16.1-.8-16.1-.8h0c-.3,0-.5,0-.7,0-5.5,0-10.4,3.7-11.9,9.1l-4.2,15.6c-.3.9-.8,1.7-1.6,2.3l-1.2.8-12.4,8.1c-3.6,2.3-5.6,6.2-5.6,10.3,0,1.5.3,2.9.8,4.4l5.8,15.1h0c.2.5.3.9.3,1.4s0,1-.3,1.4l-5.8,15.1h0c-.5,1.4-.8,2.9-.8,4.4,0,4.1,2,8,5.6,10.3l10.1,6.6,3.5,2.3c.8.5,1.4,1.3,1.6,2.3l4.2,15.6c1.5,5.4,6.3,9.1,11.9,9.1.2,0,.4,0,.6,0h-.5s16.7-.8,16.7-.8h0,.2c.9,0,1.8.3,2.5.9l12.6,10.2h0c2.2,1.8,5,2.7,7.7,2.7,2.7,0,5.5-.9,7.7-2.7l13.7-11-1.1.9c.7-.6,1.6-.9,2.5-.9h.2s16.3.8,16.3.8h0c.2,0,.4,0,.6,0,5.5,0,10.4-3.7,11.9-9.1l4.2-15.6c.3-.9.8-1.7,1.6-2.3l13.6-8.9c3.6-2.3,5.6-6.2,5.6-10.3,0-1.5-.3-3-.8-4.4l-5.8-15.1ZM142.3,75.6c-.5,1.4-.8,2.9-.8,4.4s.3,3,.8,4.4l5.8,15.1h0c.2.5.3.9.3,1.4,0,1.3-.6,2.6-1.8,3.3l-13.6,8.9h0c-2.5,1.6-4.4,4.2-5.1,7.1l-4.2,15.6c-.5,1.7-2,2.9-3.8,2.9h-.2s0,0,0,0l-16.1-.8h0c-.2,0-.4,0-.6,0-2.8,0-5.5,1-7.7,2.7l-1.1.9-11.5,9.3c-.7.6-1.6.9-2.5.9s-1.7-.3-2.5-.9l-12.6-10.2c-2.2-1.8-4.9-2.7-7.7-2.7s-.4,0-.7,0h0s-16.1.8-16.1.8h0s-.2,0-.2,0c-1.8,0-3.3-1.2-3.8-2.9l-4.2-15.6c-.8-2.9-2.6-5.4-5.1-7.1l-10.1-6.6-3.5-2.3c-1.1-.7-1.8-2-1.8-3.3,0-.5,0-.9.3-1.4l5.8-15.1h0c.5-1.4.8-2.9.8-4.4s-.3-3-.8-4.4l-5.6-14.6-.2-.6c-.2-.5-.3-.9-.3-1.4,0-1.3.6-2.6,1.8-3.3l13.6-8.9h0c2.5-1.7,4.4-4.2,5.1-7.1l4.2-15.6c.5-1.7,2-2.9,3.8-2.9h.2s16.2.8,16.2.8h0c.2,0,.4,0,.6,0,2.8,0,5.5-1,7.7-2.7l12.6-10.2c.7-.6,1.6-.9,2.5-.9.9,0,1.7.3,2.5.9l-.8-.7,13.4,10.8c2.2,1.8,4.9,2.7,7.7,2.7s.4,0,.6,0h0l16.3-.8h.2c1.8,0,3.3,1.2,3.8,2.9l4.2,15.6c.8,2.9,2.6,5.4,5.1,7.1l15.3,10-1.8-1.1c1.1.7,1.8,2,1.8,3.3,0,.5,0,.9-.3,1.4l-6.5,17.1.7-2Z"/>
<path d="M61.3,70.7l-4.3.8c-.2,0-.4.2-.3.5l3.2,16.3h-.2s-12.4-14.5-12.4-14.5c-.2-.2-.5-.3-.7-.3l-4.6.9c-.2,0-.4.2-.3.5l4.9,25.1c0,.2.2.4.5.3l4.3-.8c.2,0,.4-.2.3-.5l-3.2-16.3h.2s12.4,14.4,12.4,14.4c.2.2.4.3.7.3l4.5-.9c.2,0,.4-.2.3-.5l-4.9-25.1c0-.2-.2-.4-.5-.3Z"/>
<path d="M87.8,87.4l-11.2,2.2c-.2,0-.2,0-.3-.2l-1.1-5.4c0-.2,0-.2.2-.3l9.3-1.8c.2,0,.4-.2.3-.5l-.8-4c0-.2-.2-.4-.5-.3l-9.3,1.8c-.2,0-.2,0-.3-.2l-1-5.1c0-.2,0-.2.2-.3l11.2-2.2c.2,0,.4-.2.3-.5l-.8-4.1c0-.2-.2-.4-.5-.3l-16.6,3.3c-.2,0-.4.2-.3.5l4.9,25.1c0,.2.2.4.5.3l16.6-3.3c.2,0,.4-.2.3-.5l-.8-4.1c0-.2-.2-.4-.5-.3Z"/>
<path d="M117.9,59.6l-4.9,1c-.3,0-.4.2-.4.5l-.4,17h0s-7.8-15.3-7.8-15.3c-.1-.2-.3-.3-.5-.3l-3.3.7c-.3,0-.4.2-.4.5l-1.2,17.1h0s-6.9-15.5-6.9-15.5c0-.2-.3-.3-.5-.3l-4.9,1c-.3,0-.3.2-.2.4l11.6,23.8c.1.2.3.3.5.3l3.8-.8c.3,0,.4-.2.4-.5l1.4-17h0s7.7,15.2,7.7,15.2c.1.2.3.3.6.3l3.8-.8c.3,0,.4-.2.4-.5l1.7-26.5c0-.2-.1-.4-.4-.3Z"/>
</g>
</svg>