<svg width="25" height="24" viewBox="0 0 25 24" fill="none" xmlns="http://www.w3.org/2000/svg">
<path fill-rule="evenodd" clip-rule="evenodd" d="M16.1409 2.3656C17.041 2.48662 17.7988 2.7455 18.4008 3.34741C19.0027 3.94933 19.2616 4.70725 19.3826 5.60736C19.4464 6.08233 19.4753 6.62791 19.4884 7.24908H19.7985C20.4633 7.24905 21.0362 7.24899 21.4949 7.31067C21.9866 7.37677 22.4578 7.52584 22.8401 7.90808C23.2223 8.29033 23.3714 8.76159 23.4375 9.25323C23.4888 9.63552 23.4974 10.097 23.4988 10.625L23.4991 10.9497V18.9991C23.4991 20.5179 22.2679 21.7491 20.7491 21.7491H8.6942C7.32661 21.7491 6.22429 21.7491 5.35732 21.6326C4.45721 21.5116 3.69933 21.2527 3.09741 20.6508C2.49549 20.0488 2.23662 19.291 2.1156 18.3909C2.02238 17.6973 2.00373 16.8531 2 15.843V8.15521C2.00373 7.14507 2.02238 6.30093 2.1156 5.60736C2.23662 4.70725 2.49549 3.94933 3.09741 3.34741C3.69933 2.7455 4.45721 2.48662 5.35732 2.3656C6.05088 2.27238 6.89509 2.25373 7.90523 2.25H13.5929C14.6031 2.25373 15.4473 2.27238 16.1409 2.3656ZM20.1979 8.74982L19.4991 8.74908V18.9991C19.4991 19.6887 20.0576 20.2479 20.7469 20.2491C21.4395 20.2491 21.9991 19.6895 21.9991 18.9991V10.9991C21.9991 10.2708 21.9975 9.8 21.9509 9.45312C21.9071 9.12782 21.8365 9.02585 21.7794 8.96875C21.7223 8.91166 21.6204 8.84104 21.2951 8.7973C21.0253 8.76103 20.6805 8.75204 20.1979 8.74982ZM13.3814 3.74957H8.11673C7.01145 3.75196 6.19633 3.7663 5.55719 3.85223C4.82342 3.95088 4.43484 4.13132 4.15808 4.40808C3.88132 4.68484 3.70087 5.07342 3.60222 5.80719C3.51628 6.44633 3.50193 7.26148 3.49954 8.36676V15.6314C3.50193 16.7367 3.51628 17.5518 3.60222 18.191C3.70087 18.9248 3.88132 19.3133 4.15808 19.5901C4.43484 19.8669 4.82342 20.0473 5.55719 20.146C6.31254 20.2475 7.31366 20.2491 8.74907 20.2491H18.299C18.1072 19.8741 17.9991 19.4492 17.9991 18.9991V8.92554C17.999 7.52937 17.9958 6.54957 17.896 5.80719C17.7973 5.07342 17.6169 4.68484 17.3401 4.40808C17.0633 4.13132 16.6748 3.95088 15.941 3.85223C15.3018 3.7663 14.4867 3.75196 13.3814 3.74957ZM15.4991 7.99908C15.4991 8.41329 15.1633 8.74908 14.7491 8.74908H6.74907C6.33486 8.74908 5.99907 8.41329 5.99907 7.99908C5.99907 7.58487 6.33486 7.24908 6.74907 7.24908H14.7491C15.1633 7.24908 15.4991 7.58487 15.4991 7.99908ZM14.7491 12.7491C15.1633 12.7491 15.4991 12.4133 15.4991 11.9991C15.4991 11.5849 15.1633 11.2491 14.7491 11.2491H6.74907C6.33486 11.2491 5.99907 11.5849 5.99907 11.9991C5.99907 12.4133 6.33486 12.7491 6.74907 12.7491H14.7491ZM11.4991 15.9991C11.4991 16.4133 11.1633 16.7491 10.7491 16.7491H6.74907C6.33486 16.7491 5.99907 16.4133 5.99907 15.9991C5.99907 15.5849 6.33486 15.2491 6.74907 15.2491H10.7491C11.1633 15.2491 11.4991 15.5849 11.4991 15.9991Z" fill="#141B34"/>
</svg>
