<svg width="24" height="24" viewBox="0 0 24 24" fill="none" xmlns="http://www.w3.org/2000/svg">
<path fill-rule="evenodd" clip-rule="evenodd" d="M12.0572 1.75H12.0572H11.9428H11.9428C9.7521 1.74999 8.03143 1.74998 6.68802 1.93059C5.31137 2.11568 4.21911 2.50271 3.36091 3.36091C2.50272 4.21911 2.11568 5.31137 1.93059 6.68802C1.74998 8.03144 1.74999 9.75212 1.75 11.9428V12.0572C1.74999 14.2479 1.74998 15.9686 1.93059 17.312C2.11568 18.6886 2.50272 19.7809 3.36091 20.6391C4.21911 21.4973 5.31137 21.8843 6.68802 22.0694C8.03144 22.25 9.7521 22.25 11.9428 22.25H11.9428H12.0572H12.0572C14.2479 22.25 15.9686 22.25 17.312 22.0694C18.6886 21.8843 19.7809 21.4973 20.6391 20.6391C21.4973 19.7809 21.8843 18.6886 22.0694 17.312C22.25 15.9686 22.25 14.2479 22.25 12.0572V12.0572V11.9428V11.9428C22.25 9.7521 22.25 8.03144 22.0694 6.68802C21.8843 5.31137 21.4973 4.21911 20.6391 3.36091C19.7809 2.50271 18.6886 2.11568 17.312 1.93059C15.9686 1.74998 14.2479 1.74999 12.0572 1.75ZM4.42157 4.42157C4.95462 3.88853 5.67757 3.57994 6.8879 3.41722C8.1198 3.25159 9.73963 3.25 12 3.25C14.2604 3.25 15.8802 3.25159 17.1121 3.41722C18.3224 3.57994 19.0454 3.88853 19.5784 4.42157C20.1115 4.95462 20.4201 5.67757 20.5828 6.88789C20.7484 8.11979 20.75 9.73963 20.75 12C20.75 14.2604 20.7484 15.8802 20.5828 17.1121C20.4201 18.3224 20.1115 19.0454 19.5784 19.5784C19.0454 20.1115 18.3224 20.4201 17.1121 20.5828C15.8802 20.7484 14.2604 20.75 12 20.75C9.73963 20.75 8.1198 20.7484 6.8879 20.5828C5.67757 20.4201 4.95462 20.1115 4.42157 19.5784C3.88853 19.0454 3.57994 18.3224 3.41722 17.1121C3.25159 15.8802 3.25 14.2604 3.25 12C3.25 9.73963 3.25159 8.11979 3.41722 6.8879C3.57994 5.67757 3.88853 4.95462 4.42157 4.42157ZM14.2238 5.97483C14.2203 5.58119 13.9131 5.25723 13.5202 5.2329C13.1273 5.20857 12.7824 5.49214 12.7304 5.88234C12.7086 6.04605 12.7079 6.22186 12.7276 6.40533L12.801 14.7073C12.4907 15.7162 12.2199 16.2035 12.0189 16.4585C11.8571 16.6639 11.7363 16.7351 11.5367 16.8527C11.5017 16.8734 11.4642 16.8954 11.4237 16.9199C10.6746 17.3724 9.96793 17.3656 9.37298 17.1862C8.75814 17.0007 8.28112 16.633 8.07559 16.41C7.85507 16.1508 7.54399 15.6481 7.38867 15.0409C7.23511 14.4406 7.24185 13.7784 7.58982 13.135C8.29236 11.836 9.76015 11.6553 10.4309 11.7501C10.8411 11.8081 11.2205 11.5226 11.2785 11.1125C11.3365 10.7023 11.051 10.3228 10.6409 10.2649C9.67159 10.1279 7.401 10.3309 6.27042 12.4214C5.70184 13.4727 5.71218 14.5398 5.93546 15.4127C6.15539 16.2724 6.58961 16.9827 6.94518 17.3961L6.95851 17.4112C7.32597 17.8158 8.03454 18.3492 8.93978 18.6222C9.87158 18.9033 11.0291 18.9106 12.1992 18.2039C12.2238 18.189 12.2513 18.1731 12.2813 18.1558C12.4999 18.0292 12.8514 17.8256 13.1971 17.3869C13.5725 16.9106 13.9222 16.1936 14.2705 15.0305C14.292 14.9586 14.3026 14.8838 14.302 14.8087L14.2508 9.02283C15.0058 9.65163 16.05 10.1326 17.4121 10.2528C17.8247 10.2892 18.1887 9.98425 18.2251 9.57164C18.2615 9.15903 17.9565 8.79503 17.5439 8.75862C16.2042 8.64041 15.3503 8.0915 14.8445 7.51334C14.4382 7.04888 14.2717 6.58968 14.2267 6.30131L14.2238 5.97483Z" fill="currentColor"/>
</svg>
