<svg width="24" height="24" viewBox="0 0 24 24" fill="none" xmlns="http://www.w3.org/2000/svg">
<path fill-rule="evenodd" clip-rule="evenodd" d="M6.99647 4.74151C8.55416 4.42398 10.2393 4.25 12.0001 4.25C13.7609 4.25 15.4461 4.42398 17.0038 4.74151C19.0558 5.15982 19.7703 5.3326 20.4915 6.25983C21.2165 7.19201 21.2501 8.23864 21.2501 11.0365V12.9635C21.2501 15.7614 21.2165 16.808 20.4915 17.7402C19.7703 18.6674 19.0558 18.8402 17.0038 19.2585C15.4461 19.576 13.7609 19.75 12.0001 19.75C10.2393 19.75 8.55416 19.576 6.99647 19.2585C4.94437 18.8402 4.2299 18.6674 3.50873 17.7402C2.7837 16.808 2.75011 15.7614 2.75011 12.9635L2.75011 11.0365C2.75011 8.23864 2.7837 7.19201 3.50873 6.25983C4.2299 5.3326 4.94437 5.15982 6.99647 4.74151ZM12.0001 2.75C10.1415 2.75 8.35585 2.93356 6.69686 3.27174L6.56958 3.29766C4.67495 3.68329 3.41255 3.94024 2.3247 5.33892C1.24852 6.72258 1.24912 8.3272 1.25005 10.8124L1.25011 11.0365L1.25011 12.9635L1.25005 13.1876C1.24912 15.6728 1.24852 17.2774 2.3247 18.6611C3.41255 20.0598 4.67495 20.3167 6.56958 20.7023L6.69686 20.7283C8.35585 21.0664 10.1415 21.25 12.0001 21.25C13.8587 21.25 15.6444 21.0664 17.3034 20.7283L17.4306 20.7023C19.3253 20.3167 20.5877 20.0598 21.6755 18.6611C22.7517 17.2774 22.7511 15.6728 22.7502 13.1876L22.7501 12.9635V11.0365L22.7502 10.8124C22.7511 8.3272 22.7517 6.72258 21.6755 5.33892C20.5877 3.94024 19.3253 3.68329 17.4306 3.29766L17.3034 3.27174C15.6444 2.93356 13.8587 2.75 12.0001 2.75ZM13.8484 9.14192L13.7666 9.09685L13.7666 9.09683C12.9421 8.6425 12.2678 8.27092 11.7127 8.04103C11.1491 7.80766 10.5712 7.65886 9.98278 7.81307C9.64852 7.90068 9.33473 8.05619 9.06659 8.27298C8.57428 8.67099 8.40026 9.24087 8.32391 9.81517C8.25007 10.3707 8.25009 11.0892 8.25012 11.9466V11.9466L8.25012 12L8.25012 12.0535V12.0535C8.25009 12.9109 8.25007 13.6294 8.32391 14.1849C8.40026 14.7592 8.57429 15.3291 9.06659 15.7271C9.33473 15.9439 9.64852 16.0994 9.98278 16.187C10.5712 16.3412 11.1491 16.1924 11.7127 15.959C12.2678 15.7291 12.9421 15.3576 13.7666 14.9032L13.8484 14.8581C14.6028 14.4425 15.2258 14.0992 15.6742 13.781C16.1234 13.4623 16.5496 13.0673 16.6907 12.4913C16.7699 12.168 16.7699 11.8321 16.6907 11.5087C16.5496 10.9327 16.1234 10.5378 15.6742 10.219C15.2258 9.9009 14.6028 9.55759 13.8484 9.14192ZM10.3631 9.26406C10.4703 9.23595 10.6696 9.23262 11.1388 9.4269C11.6073 9.62093 12.2083 9.95082 13.083 10.4328C13.8893 10.8771 14.436 11.1797 14.8062 11.4424C15.1837 11.7102 15.2265 11.8357 15.2338 11.8656C15.2556 11.9545 15.2556 12.0456 15.2338 12.1345C15.2265 12.1643 15.1837 12.2898 14.8062 12.5577C14.436 12.8203 13.8893 13.123 13.083 13.5672C12.2083 14.0493 11.6073 14.3791 11.1388 14.5732C10.6696 14.7674 10.4703 14.7641 10.3631 14.736C10.2261 14.7001 10.1059 14.6385 10.0096 14.5606C9.96395 14.5237 9.86898 14.4246 9.81083 13.9872C9.75171 13.5425 9.75012 12.925 9.75012 12C9.75012 11.0751 9.75171 10.4575 9.81083 10.0128C9.86898 9.57545 9.96395 9.47638 10.0096 9.43945C10.1059 9.36161 10.2261 9.29996 10.3631 9.26406Z" fill="currentColor"/>
</svg>
