<svg width="32" height="24" viewBox="0 0 32 24" fill="none" xmlns="http://www.w3.org/2000/svg">
    <rect width="32" height="24" fill="white"/>
    <mask id="mask0_3245_4403" style="mask-type:luminance" maskUnits="userSpaceOnUse" x="8" y="4" width="16" height="16">
        <path d="M8 4H23.833V19.833H8V4Z" fill="white"/>
    </mask>
    <g mask="url(#mask0_3245_4403)">
        <path d="M8 4H23.833V19.833H8V4Z" fill="#D1B092"/>
        <path d="M22.4985 11.9166C22.4985 12.1266 22.5819 12.328 22.7304 12.4764C22.8789 12.6249 23.0802 12.7083 23.2902 12.7083C23.5001 12.7083 23.7015 12.6249 23.85 12.4764C23.9984 12.328 24.0818 12.1266 24.0818 11.9166C24.0818 11.7067 23.9984 11.5053 23.85 11.3569C23.7015 11.2084 23.5001 11.125 23.2902 11.125C23.0802 11.125 22.8789 11.2084 22.7304 11.3569C22.5819 11.5053 22.4985 11.7067 22.4985 11.9166ZM23.4318 11.9166C23.4318 11.9441 23.4236 11.971 23.4083 11.9939C23.3931 12.0167 23.3713 12.0345 23.3459 12.045C23.3205 12.0555 23.2926 12.0582 23.2656 12.0528C23.2387 12.0474 23.2139 12.0342 23.1945 12.0147C23.1751 11.9952 23.1619 11.9704 23.1566 11.9435C23.1513 11.9165 23.1541 11.8886 23.1647 11.8632C23.1753 11.8378 23.1932 11.8162 23.2161 11.801C23.239 11.7858 23.2659 11.7777 23.2934 11.7778C23.3293 11.7792 23.3633 11.7945 23.3882 11.8205C23.4131 11.8465 23.4269 11.8811 23.4268 11.9171H23.4313L23.4318 11.9166Z" fill="#D1B092"/>
        <path d="M13.0843 11.9522C13.1535 11.934 13.2137 11.8912 13.2535 11.8318C13.2728 11.8045 13.2858 11.7732 13.2917 11.7402C13.2976 11.7073 13.2962 11.6734 13.2875 11.6411C13.2789 11.6087 13.2633 11.5786 13.2418 11.553C13.2203 11.5273 13.1934 11.5067 13.163 11.4926C13.0987 11.4592 13.0244 11.4503 12.954 11.4677C12.7677 11.5174 12.6274 11.7273 12.5659 11.8359C12.67 11.8924 12.8894 12.0015 13.0843 11.9522ZM11.6015 11.3369C11.6029 11.2786 11.617 11.2212 11.6428 11.1688C11.6685 11.1164 11.7053 11.0702 11.7506 11.0333C11.7959 10.9965 11.8487 10.9699 11.9052 10.9554C11.9618 10.9409 12.0208 10.9388 12.0783 10.9493C12.1932 10.966 12.2977 11.0248 12.3714 11.1144C12.4302 11.1913 12.4709 11.2804 12.4904 11.3749L13.0567 9.63104C12.4804 9.46768 11.8637 9.52813 11.3301 9.80026C10.7964 10.0724 10.3854 10.5361 10.1792 11.0985L11.6517 11.5767C11.614 11.5026 11.5966 11.4199 11.6015 11.3369Z" fill="#0000A4"/>
        <path d="M12.9099 11.2891C13.0225 11.2601 13.1415 11.2742 13.2442 11.328C13.2967 11.3534 13.3431 11.3899 13.3803 11.4349C13.4174 11.4799 13.4444 11.5323 13.4595 11.5887C13.4745 11.6451 13.4772 11.704 13.4674 11.7615C13.4575 11.8191 13.4354 11.8738 13.4025 11.922C13.3573 11.9912 13.2944 12.0477 13.2202 12.0853L14.6963 12.5657C14.8604 11.9888 14.8005 11.3712 14.5288 10.8364C14.257 10.3017 13.7934 9.88936 13.2306 9.68182L12.6606 11.4289C12.7321 11.3642 12.8176 11.3167 12.9099 11.2891ZM12.0997 11.1348C12.0842 11.1295 12.0683 11.1254 12.0522 11.1226C12.019 11.1167 11.9849 11.1178 11.9522 11.1259C11.9195 11.134 11.8888 11.1489 11.8622 11.1697C11.8367 11.1916 11.816 11.2186 11.8014 11.249C11.7868 11.2794 11.7787 11.3124 11.7776 11.3461C11.7731 11.4185 11.7957 11.4895 11.8405 11.546C11.9694 11.7057 12.2114 11.7437 12.3331 11.7523C12.3467 11.6284 12.3567 11.3755 12.2345 11.2253C12.1992 11.1828 12.1524 11.1514 12.0997 11.1348ZM12.4064 14.291C12.8931 14.2914 13.3681 14.1421 13.7672 13.8635C14.1662 13.585 14.4701 13.1905 14.6375 12.7335L12.7633 12.1237L13.0696 12.463C13.0836 12.4723 13.0945 12.4855 13.101 12.501C13.1075 12.5165 13.1093 12.5336 13.1062 12.5501C13.103 12.5666 13.0951 12.5818 13.0834 12.5938C13.0716 12.6059 13.0566 12.6142 13.0402 12.6177C13.0292 12.62 13.0179 12.6202 13.0068 12.6181C12.9958 12.616 12.9853 12.6117 12.9759 12.6055C12.9616 12.6007 12.9488 12.5921 12.9389 12.5806L12.4589 12.0491L11.7595 14.2006C11.9699 14.2603 12.1879 14.2906 12.4064 14.291ZM11.5917 14.1467L12.2906 11.9952L11.5894 12.1427C11.5749 12.1467 11.5596 12.1467 11.5451 12.1427C11.5235 12.1405 11.5035 12.13 11.4893 12.1136C11.4752 12.0971 11.4678 12.0758 11.4689 12.054C11.4699 12.0323 11.4793 12.0118 11.4949 11.9968C11.5106 11.9817 11.5315 11.9732 11.5532 11.9731L11.9997 11.879L10.126 11.2665C9.96184 11.8434 10.0216 12.4611 10.2934 12.9958C10.5652 13.5305 11.0289 13.9429 11.5917 14.1503V14.1467ZM18.1674 14.0979C18.1674 14.1571 18.1674 14.2168 18.1615 14.2752C18.6921 14.2127 19.1861 13.973 19.5637 13.595C19.9413 13.217 20.1804 12.7227 20.2424 12.192C20.1845 12.192 20.1248 12.1984 20.066 12.1984C19.4139 12.197 18.789 11.9374 18.3279 11.4764C17.8669 11.0153 17.6073 10.3904 17.606 9.73836C17.606 9.6791 17.606 9.61984 17.6128 9.56104C17.082 9.62277 16.5877 9.86166 16.2095 10.2391C15.8313 10.6165 15.5915 11.1104 15.5287 11.641C15.5875 11.641 15.6463 11.6352 15.7069 11.6352C16.3597 11.6359 16.9855 11.8956 17.4469 12.3574C17.9083 12.8191 18.1671 13.4451 18.1674 14.0979Z" fill="#0000A4"/>
        <path d="M20.0646 12.0209C20.1293 12.0209 20.1931 12.0187 20.256 12.0132V11.916C20.256 11.2861 20.0057 10.682 19.5603 10.2366C19.115 9.79123 18.5109 9.54102 17.881 9.54102H17.7833C17.757 9.85659 17.7965 10.1742 17.8992 10.4737C18.0019 10.7733 18.1656 11.0483 18.38 11.2813C18.5944 11.5144 18.8548 11.7004 19.1448 11.8277C19.4347 11.955 19.7479 12.0208 20.0646 12.0209ZM17.8851 14.2909H17.9828C18.0092 13.9757 17.9699 13.6584 17.8676 13.3591C17.7652 13.0598 17.602 12.7849 17.3881 12.5518C17.1742 12.3187 16.9144 12.1325 16.625 12.0048C16.3355 11.8772 16.0228 11.8109 15.7065 11.8101C15.6418 11.8101 15.5775 11.8101 15.5146 11.8178V11.9151C15.5144 12.5443 15.7639 13.1479 16.2083 13.5934C16.6528 14.0388 17.2558 14.2897 17.8851 14.2909ZM23.1489 11.916C23.149 11.9364 23.1537 11.9566 23.1625 11.9751C23.1714 11.9936 23.1842 12.0099 23.2 12.0229C23.2158 12.0359 23.2343 12.0453 23.2542 12.0503C23.274 12.0554 23.2948 12.056 23.3149 12.0521C23.3408 12.0471 23.3648 12.0347 23.384 12.0165C23.4032 11.9984 23.4168 11.9751 23.4233 11.9495C23.4298 11.9238 23.4288 11.8969 23.4205 11.8718C23.4122 11.8467 23.397 11.8244 23.3766 11.8076C23.3561 11.7909 23.3313 11.7803 23.3051 11.7771C23.2788 11.7739 23.2522 11.7782 23.2283 11.7896C23.2045 11.8009 23.1843 11.8188 23.1702 11.8412C23.1562 11.8636 23.1488 11.8895 23.1489 11.916Z" fill="#0000A4"/>
        <path d="M20.9148 11.917C20.9151 12.3142 21.015 12.7051 21.2055 13.0537C21.3959 13.4023 21.6708 13.6976 22.0048 13.9125C22.3389 14.1274 22.7216 14.2551 23.1178 14.2838C23.514 14.3126 23.9111 14.2415 24.2727 14.0771V9.75693C23.9111 9.59251 23.514 9.52142 23.1178 9.55018C22.7216 9.57893 22.3389 9.7066 22.0048 9.92151C21.6708 10.1364 21.3959 10.4317 21.2055 10.7803C21.015 11.1289 20.9151 11.5198 20.9148 11.917ZM24.0782 11.917C24.0807 12.0225 24.0621 12.1275 24.0235 12.2257C23.9848 12.3239 23.9269 12.4135 23.8532 12.489C23.7795 12.5645 23.6914 12.6245 23.5941 12.6655C23.4968 12.7065 23.3923 12.7276 23.2868 12.7276C23.1812 12.7276 23.0767 12.7065 22.9794 12.6655C22.8822 12.6245 22.7941 12.5645 22.7203 12.489C22.6466 12.4135 22.5887 12.3239 22.5501 12.2257C22.5114 12.1275 22.4928 12.0225 22.4953 11.917C22.4953 11.707 22.5787 11.5057 22.7272 11.3572C22.8757 11.2088 23.077 11.1254 23.287 11.1254C23.4969 11.1254 23.6983 11.2088 23.8468 11.3572C23.9952 11.5057 24.0782 11.707 24.0782 11.917ZM9.10695 14.1106C9.13053 14.1178 9.15565 14.1185 9.17959 14.1126C9.20354 14.1066 9.22541 14.0943 9.24285 14.0768C9.2603 14.0594 9.27266 14.0375 9.2786 14.0136C9.28455 13.9896 9.28385 13.9645 9.27659 13.9409L9.06533 13.1895C9.25203 12.8989 9.3731 12.5711 9.4201 12.229C9.46711 11.8868 9.43892 11.5385 9.33749 11.2083C9.23607 10.8782 9.06385 10.5741 8.83285 10.3174C8.60185 10.0606 8.31763 9.85729 8 9.72165V14.0861C8.12173 14.034 8.23899 13.9719 8.35059 13.9007L9.10695 14.1106Z" fill="#0000A4"/>
    </g>
    <mask id="mask1_3245_4403" style="mask-type:luminance" maskUnits="userSpaceOnUse" x="16" y="12" width="12" height="12">
        <path d="M16.9453 12.8857H27.0599V23.0003H16.9453V12.8857Z" fill="white"/>
    </mask>
    <g mask="url(#mask1_3245_4403)">
        <path d="M22.0028 12.8857C20.6615 12.8857 19.3751 13.4186 18.4266 14.3671C17.4782 15.3155 16.9453 16.6019 16.9453 17.9433C16.9453 19.2846 17.4782 20.571 18.4266 21.5195C19.3751 22.4679 20.6615 23.0008 22.0028 23.0008C23.3442 23.0008 24.6306 22.4679 25.579 21.5195C26.5275 20.571 27.0603 19.2846 27.0603 17.9433C27.0603 16.6019 26.5275 15.3155 25.579 14.3671C24.6306 13.4186 23.3442 12.8857 22.0028 12.8857ZM22.0784 20.577C20.7384 20.577 20.0147 19.7989 19.864 18.691H19.4741V18.1645H19.8292V17.9428H19.4741V17.4162H19.864C20.0147 16.2817 20.7185 15.5199 21.8531 15.5199C22.6592 15.5199 22.9329 15.9234 23.0487 16.1519V15.595H24.2656V17.4683H22.694C22.6316 17.1742 22.5706 16.8802 22.1259 16.8802C21.8255 16.8802 21.6825 17.0851 21.6201 17.414H22.386L22.2978 17.9405H21.5866V18.1649H22.2566L22.167 18.6915H21.6138C21.6749 19.0077 21.8183 19.19 22.1336 19.19C22.5022 19.19 22.6176 18.9855 22.6601 18.5684H24.3203C24.1697 19.8328 23.5074 20.577 22.0784 20.577Z" fill="#FFEA00"/>
        <path d="M22.1336 19.1892C21.817 19.1892 21.6749 19.0123 21.6139 18.6907H22.1671L22.2567 18.1641H21.5867V17.9424H22.2979L22.3861 17.4159H21.6207C21.6831 17.0875 21.8315 16.883 22.1264 16.883C22.5711 16.883 22.6322 17.177 22.6946 17.4711H24.2666V15.5942H23.0497V16.1515C22.9334 15.9262 22.6598 15.5195 21.8536 15.5195C20.7191 15.5195 20.0152 16.2782 19.8646 17.4159H19.4746V17.9429H19.8297V18.1641H19.4746V18.6907H19.8646C20.0152 19.7981 20.739 20.577 22.0789 20.577C23.508 20.577 24.1707 19.832 24.3213 18.5676H22.6598C22.6186 18.9847 22.5028 19.1892 22.1341 19.1892H22.1336Z" fill="#0000A4"/>
    </g>
</svg>
